<?xml version="1.0" encoding="UTF-8" standalone="no"?>
<svg
   height="64"
   viewBox="0 0 64 64"
   width="64"
   version="1.1"
   id="svg8"
   sodipodi:docname="github.svg"
   inkscape:version="1.1 (c4e8f9ed74, 2021-05-24)"
   inkscape:export-filename="/home/takshak/projects/takshakramteke.github.io/images/icons/contact/github.png"
   inkscape:export-xdpi="96"
   inkscape:export-ydpi="96"
   xmlns:inkscape="http://www.inkscape.org/namespaces/inkscape"
   xmlns:sodipodi="http://sodipodi.sourceforge.net/DTD/sodipodi-0.dtd"
   xmlns="http://www.w3.org/2000/svg"
   xmlns:svg="http://www.w3.org/2000/svg">
  <defs
     id="defs12" />
  <sodipodi:namedview
     id="namedview10"
     pagecolor="#ffffff"
     bordercolor="#666666"
     borderopacity="1.0"
     inkscape:pageshadow="2"
     inkscape:pageopacity="0.0"
     inkscape:pagecheckerboard="0"
     showgrid="false"
     width="64px"
     inkscape:zoom="4.5902778"
     inkscape:cx="25.706505"
     inkscape:cy="40.302572"
     inkscape:window-width="1280"
     inkscape:window-height="956"
     inkscape:window-x="0"
     inkscape:window-y="0"
     inkscape:window-maximized="1"
     inkscape:current-layer="svg8" />
  <path
     d="M 7.1111111,64 H 56.888889 C 60.816247,64 64,60.816247 64,56.888889 V 7.1111111 C 64,3.1837529 60.816247,0 56.888889,0 H 7.1111111 C 3.1837529,0 0,3.1837529 0,7.1111111 V 56.888889 C 0,60.816247 3.1837529,64 7.1111111,64 Z"
     fill="#3e75c3"
     id="path2"
     style="fill:#8a2be2;fill-opacity:1;fill-rule:evenodd;stroke-width:0.888889" />
  <path
     d="m 31.998667,10.666667 c -11.78,0 -21.332,9.588526 -21.332,21.419239 0,9.461357 6.112,17.489054 14.590666,20.321571 1.066667,0.196777 1.456,-0.4645 1.456,-1.032074 0,-0.508676 -0.01867,-1.855326 -0.02933,-3.642382 -5.934667,1.294444 -7.186667,-2.871337 -7.186667,-2.871337 -0.969333,-2.473768 -2.368,-3.132368 -2.368,-3.132368 C 15.192,40.400067 17.276,40.426839 17.276,40.426839 c 2.14,0.151264 3.266667,2.207382 3.266667,2.207382 1.904,3.272924 4.993333,2.327859 6.209333,1.779025 0.193333,-1.384132 0.745333,-2.327858 1.354667,-2.863306 -4.737334,-0.540801 -9.717334,-2.377386 -9.717334,-10.584458 0,-2.338567 0.830667,-4.250115 2.196,-5.74803 -0.22,-0.54214 -0.952,-2.718734 0.208,-5.667712 0,0 1.792,-0.575605 5.866667,2.195336 1.702667,-0.47521 3.526667,-0.712145 5.341333,-0.721516 1.812,0.0094 3.637334,0.246306 5.341334,0.721516 4.072,-2.770941 5.86,-2.195336 5.86,-2.195336 1.164,2.948978 0.432,5.125572 0.212,5.667712 1.368,1.497915 2.193333,3.409463 2.193333,5.74803 0,8.227151 -4.988,10.038302 -9.74,10.568395 0.765333,0.661278 1.448,1.967769 1.448,3.966328 0,2.863305 -0.02667,5.172423 -0.02667,5.875198 0,0.572929 0.384,1.239561 1.466667,1.029397 8.470667,-2.837872 14.577333,-10.860214 14.577333,-20.318894 0,-11.830713 -9.552,-21.419239 -21.334666,-21.419239"
     fill="#ffffff"
     id="path4"
     style="fill-rule:evenodd;stroke-width:0.888889" />
</svg>
