<?xml version="1.0" encoding="UTF-8" standalone="no"?>
<svg
   id="Layer_1"
   version="1.1"
   viewBox="0 0 64 64"
   xml:space="preserve"
   width="64"
   height="64"
   sodipodi:docname="gmail.svg"
   inkscape:version="1.1 (c4e8f9ed74, 2021-05-24)"
   inkscape:export-filename="/home/takshak/projects/takshakramteke.github.io/images/icons/contact/gmail.png"
   inkscape:export-xdpi="96"
   inkscape:export-ydpi="96"
   xmlns:inkscape="http://www.inkscape.org/namespaces/inkscape"
   xmlns:sodipodi="http://sodipodi.sourceforge.net/DTD/sodipodi-0.dtd"
   xmlns="http://www.w3.org/2000/svg"
   xmlns:svg="http://www.w3.org/2000/svg"><sodipodi:namedview
     id="namedview10"
     pagecolor="#ffffff"
     bordercolor="#666666"
     borderopacity="1.0"
     inkscape:pageshadow="2"
     inkscape:pageopacity="0.0"
     inkscape:pagecheckerboard="0"
     showgrid="false"
     inkscape:zoom="5.1640625"
     inkscape:cx="31.951589"
     inkscape:cy="50.928896"
     inkscape:window-width="1280"
     inkscape:window-height="956"
     inkscape:window-x="0"
     inkscape:window-y="0"
     inkscape:window-maximized="1"
     inkscape:current-layer="Layer_1" /><defs
     id="defs17" /><style
     type="text/css"
     id="style2"
     width="72"
     height="72">
	.st0{fill:#F1574A;}
	.st1{fill:#FFFFFF;}
</style><path
     class="st0"
     d="M 64,49.6375 C 64,57.575 57.5625,64 49.6375,64 H 14.3625 C 6.4375,64 0,57.5625 0,49.6375 V 14.3625 C 0,6.4375 6.4375,0 14.3625,0 h 35.275 C 57.5625,0 64,6.4375 64,14.3625 Z"
     id="path4"
     style="fill:#8a2be2;fill-opacity:1.0;stroke-width:0.125" /><g
     id="g10"
     transform="scale(0.125)"><path
       class="st1"
       d="m 216.2,236.1 c 0,0.7 -0.1,1.2 -0.1,1.7 0,13.3 0,42 0,42 0,0 55.2,0 58.2,0 0,4.3 -5.1,21.7 -21.4,32.7 -9.5,6.5 -20.3,9.4 -31.6,10.2 -8,0.5 -15.9,-0.3 -23.6,-2.7 -24.3,-7.8 -42.4,-29.8 -44.8,-56.5 -0.6,-6.6 -0.2,-13.2 1.3,-19.7 7.2,-31.6 37.2,-55.1 71.5,-50 15.2,2.2 24,8.6 32,15.4 10.5,-10.5 20.9,-20.9 31.6,-31.7 -2.6,-1.9 -8.6,-8 -19.3,-14.1 -15.9,-9.2 -33.2,-13.8 -51.6,-14 -3.5,0 -6.9,0.2 -10.4,0.3 -6.1,0.2 -12,1.3 -17.9,2.8 -23.5,6 -43,18.3 -58.3,37.2 -14.7,18.1 -22.6,38.9 -24,62.1 -0.6,9.8 0.1,19.6 2.3,29.3 6.1,26.9 20.2,48.7 42.5,65 17.3,12.6 36.7,19.4 58,20.6 12,0.6 23.9,-0.5 35.6,-3.5 21.8,-5.7 39.9,-17.1 53.5,-35.2 19.7,-26.2 24.5,-59.8 18.7,-91.7 -34.1,-0.2 -68.1,-0.2 -102.2,-0.2 z"
       id="path6" /><polygon
       class="st1"
       points="345.6,237.5 345.6,238.6 345.6,266.1 345.6,267.2 346.6,267.2 383.5,267.2 383.5,304.1 383.5,305.1 384.6,305.1 412.1,305.1 413.2,305.1 413.2,304.1 413.2,267.2 450,267.2 451.1,267.2 451.1,266.1 451.1,238.6 451.1,237.5 450,237.5 413.2,237.5 413.2,200.7 413.2,199.6 412.1,199.6 384.6,199.6 383.5,199.6 383.5,200.7 383.5,237.5 346.6,237.5 "
       id="polygon8" /></g></svg>
