<?xml version="1.0" encoding="UTF-8" standalone="no"?>
<svg
   id="body_1"
   width="64"
   height="64"
   version="1.1"
   sodipodi:docname="linked.svg"
   inkscape:version="1.1 (c4e8f9ed74, 2021-05-24)"
   inkscape:export-filename="/home/takshak/projects/takshakramteke.github.io/images/icons/contact/linkedin.png"
   inkscape:export-xdpi="96"
   inkscape:export-ydpi="96"
   xmlns:inkscape="http://www.inkscape.org/namespaces/inkscape"
   xmlns:sodipodi="http://sodipodi.sourceforge.net/DTD/sodipodi-0.dtd"
   xmlns="http://www.w3.org/2000/svg"
   xmlns:svg="http://www.w3.org/2000/svg">
  <defs
     id="defs23" />
  <sodipodi:namedview
     id="namedview21"
     pagecolor="#ffffff"
     bordercolor="#666666"
     borderopacity="1.0"
     inkscape:pageshadow="2"
     inkscape:pageopacity="0.0"
     inkscape:pagecheckerboard="0"
     showgrid="false"
     width="64px"
     inkscape:zoom="6.4916331"
     inkscape:cx="33.2736"
     inkscape:cy="40.821777"
     inkscape:window-width="1280"
     inkscape:window-height="956"
     inkscape:window-x="0"
     inkscape:window-y="0"
     inkscape:window-maximized="1"
     inkscape:current-layer="body_1" />
  <g
     id="g2"
     transform="scale(0.125)" />
  <g
     id="g6"
     transform="scale(0.125)" />
  <g
     transform="matrix(0.19422432,0,0,0.19422432,-17.609165,-16.58069)"
     id="g10" />
  <g
     transform="matrix(0.19422432,0,0,0.19422432,-17.609165,-16.58069)"
     id="g14" />
  <path
     d="M 0,8 C 0,3.581722 3.581722,0 8,0 v 0 h 48 c 4.418278,0 8,3.581722 8,8 v 0 48 c 0,4.418278 -3.581722,8 -8,8 v 0 H 8 C 3.581722,64 0,60.418278 0,56 v 0 z"
     stroke="none"
     fill="#0083be"
     fill-rule="nonzero"
     id="path4"
     style="fill:#8a2be2;fill-opacity:1.0;stroke-width:0.125" />
  <path
     d="M 7.631645,22.333512 H 18.351662 V 54.578825 H 7.631645 Z"
     stroke="none"
     fill="#ffffff"
     fill-rule="nonzero"
     id="path8"
     style="stroke-width:0.125" />
  <path
     d="m 13.064099,6.7850784 c -3.6677319,0 -6.0640715,2.4112949 -6.0640715,5.5717126 0,3.093996 2.3235055,5.571714 5.9220935,5.571714 v 0 h 0.06934 c 3.737845,0 6.06446,-2.47772 6.06446,-5.571714 -0.06934,-3.1604177 -2.326418,-5.5717107 -5.991822,-5.5717107 v 0 z"
     stroke="none"
     fill="#ffffff"
     fill-rule="nonzero"
     id="path12"
     style="stroke-width:0.194224" />
  <path
     d="m 44.659929,21.57526 c -5.686306,0 -8.233363,3.127206 -9.659552,5.323689 v 0 -4.565435 H 24.283079 c 0.142172,3.024655 0,32.245314 0,32.245314 v 0 H 35.000186 V 36.570737 c 0,-0.963935 0.06933,-1.927482 0.35349,-2.616395 0.7734,-1.924958 2.538122,-3.919059 5.499068,-3.919059 3.876523,0 5.429541,2.958037 5.429541,7.290987 v 0 17.252558 H 56.999971 V 36.087507 c 0,-9.904663 -5.288142,-14.512247 -12.340042,-14.512247 z"
     stroke="none"
     fill="#ffffff"
     fill-rule="nonzero"
     id="path16"
     style="stroke-width:0.194224" />
</svg>
