<?xml version="1.0" encoding="UTF-8" standalone="no"?>
<svg
   id="body_1"
   width="64"
   height="64"
   version="1.1"
   sodipodi:docname="twitter.svg"
   inkscape:version="1.1 (c4e8f9ed74, 2021-05-24)"
   inkscape:export-filename="/home/takshak/projects/takshakramteke.github.io/images/icons/contact/twitter.png"
   inkscape:export-xdpi="96"
   inkscape:export-ydpi="96"
   xmlns:inkscape="http://www.inkscape.org/namespaces/inkscape"
   xmlns:sodipodi="http://sodipodi.sourceforge.net/DTD/sodipodi-0.dtd"
   xmlns="http://www.w3.org/2000/svg"
   xmlns:svg="http://www.w3.org/2000/svg">
  <defs
     id="defs15" />
  <sodipodi:namedview
     id="namedview13"
     pagecolor="#ffffff"
     bordercolor="#666666"
     borderopacity="1.0"
     inkscape:pageshadow="2"
     inkscape:pageopacity="0.0"
     inkscape:pagecheckerboard="0"
     showgrid="false"
     width="64px"
     inkscape:zoom="4.5902778"
     inkscape:cx="43.134644"
     inkscape:cy="56.4236"
     inkscape:window-width="1280"
     inkscape:window-height="956"
     inkscape:window-x="0"
     inkscape:window-y="0"
     inkscape:window-maximized="1"
     inkscape:current-layer="body_1" />
  <g
     id="g2"
     transform="scale(2)" />
  <g
     id="g6"
     transform="scale(2)" />
  <path
     d="m 64,60 c 0,2.208 -1.792,4 -4,4 v 0 H 4 C 1.792,64 0,62.208 0,60 V 60 4 C 0,1.792 1.792,0 4,0 v 0 h 56 c 2.208,0 4,1.792 4,4 v 0 z"
     stroke="none"
     fill="#55acee"
     fill-rule="nonzero"
     id="path4"
     style="fill:#8a2be2;fill-opacity:1.0;stroke-width:2" />
  <path
     d="m 51.974,19.788 c -1.472,0.644 -3.05,1.074 -4.714,1.27 1.7,-0.996 3,-2.578 3.611998,-4.462 C 49.288,17.518002 47.531998,18.19 45.662,18.552 44.166,16.982 42.034,16 39.676,16 c -4.532002,0 -8.200002,3.614 -8.200002,8.076 0,0.628 0.072,1.25 0.208,1.844 -6.814,-0.344 -12.858,-3.558 -16.903999,-8.442 -0.704001,1.194 -1.112,2.58 -1.112,4.064 0,2.798 1.452,5.27 3.648001,6.72 -1.342,-0.044 -2.608,-0.406 -3.712,-1.012 -0.002,0.034 -0.002,0.068 -0.002,0.104 0,3.91 2.828,7.178 6.58,7.920002 -0.686002,0.18 -1.41,0.284 -2.162002,0.284 -0.528,0 -1.039998,-0.048 -1.539998,-0.144 1.04,3.208 4.068,5.542 7.656,5.610002 C 21.34,43.188 17.8,44.48 13.958,44.48 c -0.66,0 -1.316,-0.036 -1.958,-0.112 3.628,2.29 7.942,3.626 12.574002,3.626 15.082,0 23.332,-12.308 23.332,-22.982 0,-0.346002 -0.01,-0.700002 -0.024,-1.042 C 49.482,22.828 50.876,21.406 51.974,19.788 Z"
     stroke="none"
     fill="#ffffff"
     fill-rule="nonzero"
     id="path8"
     style="stroke-width:2" />
</svg>
