<?xml version="1.0" encoding="UTF-8" standalone="no"?>
<svg
   viewBox="0 0 6.9610397 7.0420788"
   width="46.318001"
   height="46.873001"
   version="1.1"
   id="svg20"
   sodipodi:docname="bash-1.svg"
   inkscape:version="1.1 (c4e8f9ed74, 2021-05-24)"
   xmlns:inkscape="http://www.inkscape.org/namespaces/inkscape"
   xmlns:sodipodi="http://sodipodi.sourceforge.net/DTD/sodipodi-0.dtd"
   xmlns="http://www.w3.org/2000/svg"
   xmlns:svg="http://www.w3.org/2000/svg"
   xmlns:rdf="http://www.w3.org/1999/02/22-rdf-syntax-ns#"
   xmlns:cc="http://creativecommons.org/ns#"
   xmlns:dc="http://purl.org/dc/elements/1.1/">
  <sodipodi:namedview
     id="namedview22"
     pagecolor="#ffffff"
     bordercolor="#666666"
     borderopacity="1.0"
     inkscape:pageshadow="2"
     inkscape:pageopacity="0.0"
     inkscape:pagecheckerboard="0"
     showgrid="false"
     inkscape:zoom="11.313708"
     inkscape:cx="27.753942"
     inkscape:cy="20.594486"
     inkscape:window-width="1280"
     inkscape:window-height="956"
     inkscape:window-x="0"
     inkscape:window-y="0"
     inkscape:window-maximized="1"
     inkscape:current-layer="Layer_1-2"
     width="46.318px" />
  <defs
     id="defs4">
    <style
       id="style2">.cls-1{fill:#fff}.cls-2{fill:#2f3a3e}.cls-3{fill:#3ab14a}</style>
    <clipPath
       clipPathUnits="userSpaceOnUse"
       id="clipPath238">
      <rect
         style="fill:#8a2be2;stroke-width:37.1024"
         id="rect240"
         width="156.32407"
         height="158.5183"
         x="0.23636547"
         y="-0.014302986" />
    </clipPath>
  </defs>
  <title
     id="title6">Asset 1</title>
  <g
     id="g31"
     transform="matrix(0.01999839,0,0,0.01999839,5.1618439e-6,-4.3223458e-4)">
    <g
       id="Layer_1-2"
       data-name="Layer 1"
       clip-path="url(#clipPath238)"
       transform="matrix(2.2266392,0,0,2.2266392,-0.52520282,-0.02644224)">
      <path
         class="cls-1"
         d="M 128.79,32.3 78.85,2.65 a 18.81,18.81 0 0 0 -19.27,0 L 9.63,32.3 A 19.92,19.92 0 0 0 0,49.46 v 59.29 a 19.92,19.92 0 0 0 9.63,17.15 l 49.94,29.64 a 18.82,18.82 0 0 0 19.27,0 l 49.94,-29.64 a 19.92,19.92 0 0 0 9.64,-17.16 V 49.46 A 19.92,19.92 0 0 0 128.79,32.3 Z"
         id="path8" />
      <path
         class="cls-2"
         d="M 128.79,32.3 78.85,2.65 a 18.81,18.81 0 0 0 -19.27,0 L 9.63,32.3 A 19.92,19.92 0 0 0 0,49.46 v 59.29 a 19.92,19.92 0 0 0 9.63,17.15 l 49.94,29.64 a 18.82,18.82 0 0 0 19.27,0 l 49.94,-29.64 a 19.92,19.92 0 0 0 9.64,-17.16 V 49.46 A 19.92,19.92 0 0 0 128.79,32.3 Z M 61.32,152.51 11.38,122.87 A 16.44,16.44 0 0 1 3.46,108.75 V 49.46 A 16.43,16.43 0 0 1 11.38,35.34 L 61.32,5.69 a 15.4,15.4 0 0 1 15.78,0 L 127,35.34 a 16.33,16.33 0 0 1 7.67,11.42 c -1.66,-3.53 -5.39,-4.5 -9.74,-2 L 77.72,74 c -5.89,3.43 -10.23,7.3 -10.24,14.4 v 58.22 c 0,4.25 1.71,7 4.35,7.81 a 15.3,15.3 0 0 1 -2.62,0.25 15.47,15.47 0 0 1 -7.89,-2.17 z"
         id="path10"
         inkscape:export-filename="/home/takshak/projects/takshakramteke.github.io/images/icons/tech/bash.png"
         inkscape:export-xdpi="96"
         inkscape:export-ydpi="96" />
      <path
         class="cls-3"
         d="m 115.7,114.48 -12.44,7.44 a 0.91,0.91 0 0 0 -0.57,0.81 V 126 c 0,0.4 0.27,0.56 0.6,0.37 l 12.63,-7.68 a 1,1 0 0 0 0.38,-1 v -2.87 c -0.01,-0.37 -0.3,-0.53 -0.6,-0.34 z"
         id="path12" />
      <path
         class="cls-1"
         d="m 89.22,87.09 c 0.4,-0.2 0.73,0 0.74,0.57 L 90,92 a 8,8 0 0 1 4.78,-0.58 c 0.31,0.08 0.44,0.5 0.32,1 l -0.95,3.81 a 1.64,1.64 0 0 1 -0.43,0.76 1,1 0 0 1 -0.25,0.18 0.57,0.57 0 0 1 -0.37,0.06 6.34,6.34 0 0 0 -4.61,0.74 5.79,5.79 0 0 0 -3.41,5.13 c 0,2 1,2.55 4.49,2.61 4.61,0.08 6.61,2.09 6.66,6.74 a 16.53,16.53 0 0 1 -6.12,12.47 l 0.08,4.26 a 1.56,1.56 0 0 1 -0.73,1.3 l -2.52,1.45 c -0.4,0.2 -0.73,0 -0.74,-0.56 v -4.19 c -2.16,0.9 -4.35,1.11 -5.75,0.55 -0.26,-0.1 -0.38,-0.49 -0.27,-0.94 l 0.91,-3.85 a 1.61,1.61 0 0 1 0.45,-0.8 1,1 0 0 1 0.24,-0.17 0.5,0.5 0 0 1 0.41,0 7,7 0 0 0 5.29,-0.67 6.92,6.92 0 0 0 3.91,-6 c 0,-2.16 -1.19,-3.06 -4,-3.08 -3.63,0 -7,-0.7 -7.07,-6 A 15.5,15.5 0 0 1 86.18,94.36 L 86,90 a 1.55,1.55 0 0 1 0.73,-1.32 z"
         id="path14" />
      <path
         class="cls-2"
         d="m 203,81.4 a 18.21,18.21 0 0 0 -4.46,-3.87 l -0.64,-0.38 a 17.73,17.73 0 0 0 3.62,-3.2 15.08,15.08 0 0 0 3.64,-9.77 17.16,17.16 0 0 0 -2.11,-8.86 18.17,18.17 0 0 0 -5.71,-6.08 25.05,25.05 0 0 0 -7.87,-3.41 38,38 0 0 0 -8.77,-1.11 h -20 a 2.47,2.47 0 0 0 -2.53,2.4 v 63.92 a 2.47,2.47 0 0 0 2.53,2.4 h 21.54 a 32.31,32.31 0 0 0 9.08,-1.39 25.71,25.71 0 0 0 7.92,-3.93 19.78,19.78 0 0 0 5.63,-6.52 18.36,18.36 0 0 0 2.08,-9 17.7,17.7 0 0 0 -1,-6.1 A 17.32,17.32 0 0 0 203,81.4 Z M 190.75,67.34 a 7.85,7.85 0 0 1 -2.23,2.44 11,11 0 0 1 -3.33,1.6 15,15 0 0 1 -4,0.62 h -9.38 V 56.47 h 9.11 a 20,20 0 0 1 4.3,0.54 10.53,10.53 0 0 1 3.38,1.42 6.62,6.62 0 0 1 2.13,2.27 6.81,6.81 0 0 1 0.78,3.41 6.2,6.2 0 0 1 -0.76,3.23 z m -18.91,16.22 h 11 a 15.08,15.08 0 0 1 4.32,0.74 10,10 0 0 1 3.28,1.8 7.94,7.94 0 0 1 2.11,2.75 8.63,8.63 0 0 1 0.73,3.85 8.07,8.07 0 0 1 -0.83,3.73 8.21,8.21 0 0 1 -2.27,2.76 11.71,11.71 0 0 1 -3.49,1.85 14,14 0 0 1 -4.23,0.72 H 171.84 Z M 244.53,46.4 a 2.51,2.51 0 0 0 -2.41,-1.67 H 235 a 2.52,2.52 0 0 0 -2.4,1.66 l -21.7,63.92 a 2.3,2.3 0 0 0 0.36,2.15 2.57,2.57 0 0 0 2,1 h 8.54 a 2.52,2.52 0 0 0 2.41,-1.69 l 4.85,-14.86 h 18.7 l 4.76,14.85 a 2.51,2.51 0 0 0 2.42,1.7 h 8.49 a 2.57,2.57 0 0 0 2,-1 2.31,2.31 0 0 0 0.37,-2.15 z M 244,85 h -11 l 5.56,-17.14 z m 73.19,-1.13 a 21.63,21.63 0 0 0 -4,-3.94 33.83,33.83 0 0 0 -4.74,-3 46.11,46.11 0 0 0 -5.19,-2.31 c -1.72,-0.64 -3.47,-1.23 -5.21,-1.75 -1.48,-0.43 -3.06,-0.94 -4.71,-1.5 a 22.29,22.29 0 0 1 -4.26,-2 10.1,10.1 0 0 1 -2.92,-2.59 5.45,5.45 0 0 1 -1,-3.28 6.67,6.67 0 0 1 0.79,-3.35 7.54,7.54 0 0 1 2.21,-2.47 10.59,10.59 0 0 1 3.35,-1.58 14.62,14.62 0 0 1 8.61,0.18 10,10 0 0 1 3.33,2 10.12,10.12 0 0 1 2.27,3.14 14.88,14.88 0 0 1 1.23,4.35 2.49,2.49 0 0 0 2.51,2.1 h 8.77 a 2.59,2.59 0 0 0 1.8,-0.72 2.34,2.34 0 0 0 0.72,-1.73 19.83,19.83 0 0 0 -2.26,-9 21.76,21.76 0 0 0 -5.66,-6.81 26.37,26.37 0 0 0 -8,-4.31 29.68,29.68 0 0 0 -17.95,-0.25 25.72,25.72 0 0 0 -7.8,3.78 20.5,20.5 0 0 0 -5.68,6.22 16.59,16.59 0 0 0 -2.24,8.55 15.56,15.56 0 0 0 2.27,8.41 21.9,21.9 0 0 0 5.57,5.99 34.51,34.51 0 0 0 7.23,4.08 c 2.52,1.06 5,2 7.47,2.72 q 2.4,0.73 5,1.64 a 21.76,21.76 0 0 1 4.35,2.06 9.74,9.74 0 0 1 2.95,2.76 6.16,6.16 0 0 1 1,3.63 6.06,6.06 0 0 1 -0.84,3.31 7.89,7.89 0 0 1 -2.37,2.42 11.11,11.11 0 0 1 -3.51,1.49 18.16,18.16 0 0 1 -9.31,-0.18 11.69,11.69 0 0 1 -3.85,-2 10.69,10.69 0 0 1 -2.71,-3.19 12.67,12.67 0 0 1 -1.43,-4.47 2.49,2.49 0 0 0 -2.51,-2.09 h -8.73 a 2.59,2.59 0 0 0 -1.81,0.73 2.34,2.34 0 0 0 -0.71,1.74 19,19 0 0 0 2.59,9.26 22.72,22.72 0 0 0 6.18,6.78 28.34,28.34 0 0 0 8.45,4.18 32.55,32.55 0 0 0 9.55,1.43 33.72,33.72 0 0 0 8.72,-1.16 26.7,26.7 0 0 0 8,-3.55 20.11,20.11 0 0 0 5.91,-6.07 16.18,16.18 0 0 0 2.36,-8.74 17.51,17.51 0 0 0 -1,-6 18.1,18.1 0 0 0 -2.79,-4.91 z M 373.2,44.73 h -8.08 a 2.47,2.47 0 0 0 -2.53,2.4 V 72.21 H 340.08 V 47.13 a 2.47,2.47 0 0 0 -2.53,-2.4 h -8 a 2.47,2.47 0 0 0 -2.53,2.4 v 63.92 a 2.47,2.47 0 0 0 2.53,2.4 h 8 a 2.47,2.47 0 0 0 2.53,-2.4 V 83.91 h 22.51 v 27.14 a 2.47,2.47 0 0 0 2.53,2.4 h 8.08 a 2.47,2.47 0 0 0 2.53,-2.4 V 47.13 a 2.47,2.47 0 0 0 -2.53,-2.4 z m -207.27,79.8 h -3.06 v 8.18 h -1.63 v -8.18 h -3 v -1.29 h 7.73 z m 9.41,8.18 h -1.6 v -4.23 h -3.39 v 4.23 h -1.59 v -9.47 h 1.59 v 4 h 3.39 v -4 h 1.6 z m 9.4,-4.24 h -4.1 v 3 h 4.79 v 1.27 H 179 v -9.47 h 6.39 v 1.29 h -4.75 v 2.67 h 4.1 z m 14.19,4.24 v -9.47 h 3.18 a 6,6 0 0 1 1.34,0.16 3.35,3.35 0 0 1 1.09,0.46 2.24,2.24 0 0 1 0.74,0.8 2.29,2.29 0 0 1 0.26,1.15 1.87,1.87 0 0 1 -0.41,1.2 2.6,2.6 0 0 1 -1.09,0.77 2.66,2.66 0 0 1 0.74,0.32 2.07,2.07 0 0 1 0.54,0.49 2.19,2.19 0 0 1 0.34,0.63 2.34,2.34 0 0 1 0.12,0.74 2.59,2.59 0 0 1 -0.26,1.19 2.43,2.43 0 0 1 -0.72,0.86 3.33,3.33 0 0 1 -1.09,0.52 5.09,5.09 0 0 1 -1.36,0.19 z m 1.65,-5.48 h 1.57 a 2.71,2.71 0 0 0 0.69,-0.09 1.64,1.64 0 0 0 0.55,-0.26 1.27,1.27 0 0 0 0.37,-0.42 1.19,1.19 0 0 0 0.14,-0.57 1.34,1.34 0 0 0 -0.13,-0.61 1.13,1.13 0 0 0 -0.37,-0.42 1.65,1.65 0 0 0 -0.56,-0.24 3.37,3.37 0 0 0 -0.7,-0.08 h -1.56 z m 0,1.19 v 3 h 1.79 a 2.38,2.38 0 0 0 0.71,-0.11 1.74,1.74 0 0 0 0.55,-0.3 1.35,1.35 0 0 0 0.37,-0.46 1.37,1.37 0 0 0 0.13,-0.61 1.66,1.66 0 0 0 -0.12,-0.64 1.29,1.29 0 0 0 -0.33,-0.48 1.53,1.53 0 0 0 -0.53,-0.3 2.31,2.31 0 0 0 -0.7,-0.11 z m 15.12,0.17 a 5.7,5.7 0 0 1 -0.23,1.61 4.16,4.16 0 0 1 -0.67,1.36 3.3,3.3 0 0 1 -1.12,0.94 3.39,3.39 0 0 1 -1.58,0.35 3.19,3.19 0 0 1 -2.66,-1.29 4.18,4.18 0 0 1 -0.66,-1.36 5.73,5.73 0 0 1 -0.22,-1.61 v -1.21 a 5.92,5.92 0 0 1 0.1,-1.09 5,5 0 0 1 0.29,-1 4.25,4.25 0 0 1 0.49,-0.87 3.08,3.08 0 0 1 0.68,-0.69 3.18,3.18 0 0 1 0.89,-0.45 3.52,3.52 0 0 1 1.09,-0.16 3.27,3.27 0 0 1 2.7,1.29 4.1,4.1 0 0 1 0.68,1.36 5.73,5.73 0 0 1 0.23,1.61 z m -1.65,-1.22 a 6.32,6.32 0 0 0 -0.1,-1.06 3.1,3.1 0 0 0 -0.32,-0.94 1.93,1.93 0 0 0 -0.6,-0.67 1.61,1.61 0 0 0 -0.93,-0.26 1.57,1.57 0 0 0 -0.92,0.26 1.85,1.85 0 0 0 -0.58,0.67 3.09,3.09 0 0 0 -0.3,0.94 7.05,7.05 0 0 0 -0.09,1.06 v 1.22 a 6.84,6.84 0 0 0 0.1,1.06 3.22,3.22 0 0 0 0.3,0.94 1.87,1.87 0 0 0 0.58,0.68 1.56,1.56 0 0 0 0.92,0.26 1.6,1.6 0 0 0 0.93,-0.26 2,2 0 0 0 0.6,-0.68 3.08,3.08 0 0 0 0.32,-0.94 6.6,6.6 0 0 0 0.1,-1.06 z m 11.39,-4.12 v 6.34 a 3.64,3.64 0 0 1 -0.25,1.33 3,3 0 0 1 -0.67,1 2.94,2.94 0 0 1 -1,0.66 3.81,3.81 0 0 1 -1.37,0.23 3.67,3.67 0 0 1 -1.34,-0.23 2.91,2.91 0 0 1 -1.7,-1.69 3.66,3.66 0 0 1 -0.25,-1.34 v -6.34 h 1.61 v 6.34 a 2.93,2.93 0 0 0 0.12,0.8 1.88,1.88 0 0 0 0.31,0.63 1.42,1.42 0 0 0 0.51,0.41 1.62,1.62 0 0 0 0.71,0.15 1.71,1.71 0 0 0 0.73,-0.15 1.45,1.45 0 0 0 0.53,-0.41 1.82,1.82 0 0 0 0.32,-0.63 3,3 0 0 0 0.12,-0.8 v -6.34 z m 6.88,5.75 h -1.67 v 3.69 H 229 v -9.47 h 3.15 a 5.43,5.43 0 0 1 1.41,0.19 3.29,3.29 0 0 1 1.12,0.53 2.41,2.41 0 0 1 0.73,0.89 2.82,2.82 0 0 1 0.26,1.25 2.71,2.71 0 0 1 -0.13,0.87 2.52,2.52 0 0 1 -0.37,0.71 2.67,2.67 0 0 1 -0.57,0.56 3.66,3.66 0 0 1 -0.74,0.41 l 2.11,4 v 0.08 h -1.75 z m -1.67,-1.26 h 1.51 a 2.46,2.46 0 0 0 0.75,-0.11 1.81,1.81 0 0 0 0.59,-0.32 1.41,1.41 0 0 0 0.39,-0.5 1.61,1.61 0 0 0 0.14,-0.68 1.78,1.78 0 0 0 -0.13,-0.7 1.38,1.38 0 0 0 -0.37,-0.51 1.64,1.64 0 0 0 -0.59,-0.32 2.81,2.81 0 0 0 -0.78,-0.11 h -1.5 z m 14.78,4.97 h -1.65 l -3.24,-6.51 v 6.51 h -1.66 v -9.47 h 1.66 l 3.23,6.5 v -6.5 h 1.66 z m 9.41,-4.24 h -4.1 v 3 h 4.79 v 1.27 h -6.43 v -9.47 h 6.39 v 1.29 h -4.75 v 2.67 h 4.1 z m 10.34,0.72 h -5.48 v -1.25 h 5.48 z m 8.68,1.33 h -3.11 l -0.68,2.2 h -1.7 l 3.23,-9.47 h 1.4 l 3.17,9.47 h -1.69 z m -2.69,-1.33 h 2.28 l -1.13,-3.71 z m 14.56,2.34 a 3.42,3.42 0 0 1 -0.59,0.53 3.93,3.93 0 0 1 -0.77,0.42 4.85,4.85 0 0 1 -0.92,0.27 5.47,5.47 0 0 1 -1.06,0.1 3.62,3.62 0 0 1 -1.59,-0.33 3.38,3.38 0 0 1 -1.17,-0.91 4.05,4.05 0 0 1 -0.73,-1.36 5.61,5.61 0 0 1 -0.26,-1.68 v -1.17 a 5.54,5.54 0 0 1 0.25,-1.68 4.15,4.15 0 0 1 0.71,-1.36 3.31,3.31 0 0 1 1.13,-0.91 3.37,3.37 0 0 1 1.53,-0.34 4.42,4.42 0 0 1 1.38,0.2 3,3 0 0 1 1,0.58 2.76,2.76 0 0 1 0.69,0.93 3.73,3.73 0 0 1 0.32,1.22 h -1.61 a 2.94,2.94 0 0 0 -0.19,-0.69 1.59,1.59 0 0 0 -0.35,-0.52 1.47,1.47 0 0 0 -0.53,-0.33 2.13,2.13 0 0 0 -0.74,-0.11 1.59,1.59 0 0 0 -0.89,0.24 2,2 0 0 0 -0.62,0.66 3.16,3.16 0 0 0 -0.36,1 5.69,5.69 0 0 0 -0.12,1.14 v 1.18 a 5.52,5.52 0 0 0 0.13,1.13 3,3 0 0 0 0.38,1 2,2 0 0 0 0.66,0.66 1.88,1.88 0 0 0 1,0.25 h 0.48 a 3,3 0 0 0 0.47,-0.09 2.13,2.13 0 0 0 0.41,-0.17 1,1 0 0 0 0.3,-0.25 v -1.89 h -1.8 v -1.21 h 3.41 z m 8.16,-1.01 h -3.11 l -0.68,2.2 h -1.7 l 3.23,-9.47 h 1.44 l 3.17,9.47 h -1.69 z m -2.69,-1.33 h 2.28 l -1.13,-3.71 z m 8.1,-5.94 h 5.92 v 1.29 h -2.15 v 6.89 h 2.15 v 1.29 h -5.92 v -1.29 h 2.11 v -6.89 h -2.11 z m 16.24,9.46 h -1.65 l -3.24,-6.51 v 6.51 H 309 v -9.47 h 1.66 l 3.23,6.5 v -6.5 h 1.66 z m 18.75,-2.43 a 1.17,1.17 0 0 0 -0.15,-0.59 1.46,1.46 0 0 0 -0.42,-0.45 2.89,2.89 0 0 0 -0.64,-0.34 q -0.37,-0.15 -0.81,-0.27 a 9.52,9.52 0 0 1 -1.16,-0.4 4.54,4.54 0 0 1 -1,-0.59 2.91,2.91 0 0 1 -0.73,-0.81 2.06,2.06 0 0 1 -0.28,-1.08 2.17,2.17 0 0 1 0.28,-1.1 2.61,2.61 0 0 1 0.74,-0.82 3.52,3.52 0 0 1 1.08,-0.52 4.55,4.55 0 0 1 1.29,-0.18 4.21,4.21 0 0 1 1.34,0.21 3.51,3.51 0 0 1 1.09,0.59 2.84,2.84 0 0 1 0.74,0.91 2.59,2.59 0 0 1 0.28,1.17 h -1.64 a 2.17,2.17 0 0 0 -0.16,-0.65 1.49,1.49 0 0 0 -0.36,-0.51 1.57,1.57 0 0 0 -0.56,-0.33 2.26,2.26 0 0 0 -0.76,-0.12 2.47,2.47 0 0 0 -0.68,0.09 1.62,1.62 0 0 0 -0.54,0.27 1.27,1.27 0 0 0 -0.36,0.42 1.19,1.19 0 0 0 -0.13,0.56 1,1 0 0 0 0.18,0.57 1.65,1.65 0 0 0 0.46,0.43 3.22,3.22 0 0 0 0.66,0.32 q 0.37,0.13 0.78,0.24 a 8.54,8.54 0 0 1 1.19,0.43 4.31,4.31 0 0 1 1,0.62 2.81,2.81 0 0 1 0.68,0.83 2.27,2.27 0 0 1 0.25,1.09 2.17,2.17 0 0 1 -0.28,1.11 2.5,2.5 0 0 1 -0.75,0.81 3.52,3.52 0 0 1 -1.09,0.49 5,5 0 0 1 -1.3,0.17 4.9,4.9 0 0 1 -0.91,-0.08 4.28,4.28 0 0 1 -0.86,-0.25 3.82,3.82 0 0 1 -0.77,-0.42 3.05,3.05 0 0 1 -0.62,-0.58 2.6,2.6 0 0 1 -0.57,-1.63 h 1.65 a 2,2 0 0 0 0.2,0.75 1.55,1.55 0 0 0 0.44,0.53 1.91,1.91 0 0 0 0.64,0.32 2.88,2.88 0 0 0 0.81,0.11 2.76,2.76 0 0 0 0.69,-0.08 1.76,1.76 0 0 0 0.56,-0.25 1.24,1.24 0 0 0 0.38,-0.41 1.11,1.11 0 0 0 0.12,-0.58 z m 11.3,2.43 H 344 v -4.23 h -3.4 v 4.23 H 339 v -9.47 h 1.59 v 4 H 344 v -4 h 1.6 z m 9.41,-4.24 h -4.1 v 3 h 4.79 v 1.27 h -6.44 v -9.47 h 6.39 v 1.29 h -4.75 v 2.67 H 355 Z m 6,2.97 h 4.75 v 1.27 h -6.39 v -9.47 H 361 Z m 10,0 h 4.75 v 1.27 h -6.39 v -9.47 H 371 Z"
         id="path16" />
    </g>
  </g>
  <metadata
     id="metadata46">
    <rdf:RDF>
      <cc:Work
         rdf:about="">
        <dc:title>Asset 1</dc:title>
      </cc:Work>
    </rdf:RDF>
  </metadata>
</svg>
