<?xml version="1.0" encoding="UTF-8" standalone="no"?>
<svg
   id="Layer_1"
   version="1.1"
   viewBox="0 0 41.638 46.855999"
   xml:space="preserve"
   sodipodi:docname="C++.svg"
   inkscape:version="1.1 (c4e8f9ed74, 2021-05-24)"
   width="41.638"
   height="46.855999"
   xmlns:inkscape="http://www.inkscape.org/namespaces/inkscape"
   xmlns:sodipodi="http://sodipodi.sourceforge.net/DTD/sodipodi-0.dtd"
   xmlns="http://www.w3.org/2000/svg"
   xmlns:svg="http://www.w3.org/2000/svg"><defs
     id="defs25" /><sodipodi:namedview
     id="namedview23"
     pagecolor="#ffffff"
     bordercolor="#666666"
     borderopacity="1.0"
     inkscape:pageshadow="2"
     inkscape:pageopacity="0.0"
     inkscape:pagecheckerboard="0"
     showgrid="false"
     inkscape:zoom="1.1799541"
     inkscape:cx="187.29542"
     inkscape:cy="222.46628"
     inkscape:window-width="1280"
     inkscape:window-height="953"
     inkscape:window-x="0"
     inkscape:window-y="37"
     inkscape:window-maximized="1"
     inkscape:current-layer="Layer_1"
     width="41.638px" /><style
     type="text/css"
     id="style2">
	.st0{fill:#00599C;}
	.st1{fill:#004482;}
	.st2{fill:#659AD2;}
	.st3{fill:#FFFFFF;}
</style><g
     id="g36"
     transform="matrix(0.13607126,0,0,0.13607126,-6.6673943,-3.5218674)"><path
       class="st0"
       d="M 351.10699,284.1445 C 353.508,279.9855 355,275.2995 355,271.09152 v -146.069 c 0,-4.208 -1.48999,-8.893 -3.892,-13.052 L 202,198.05753 Z"
       id="path4" /><path
       class="st1"
       d="m 215.25,367.0755 126.5,-73.034 c 3.64401,-2.104 6.95599,-5.737 9.35699,-9.897 L 202,198.05753 52.893002,284.14551 c 2.400997,4.15899 5.714001,7.793 9.356998,9.89599 l 126.5,73.034 c 7.287,4.20801 19.213,4.20801 26.5,0 z"
       id="path6" /><path
       class="st2"
       d="m 351.108,111.96951 c -2.40201,-4.15999 -5.71499,-7.793 -9.358,-9.897 L 215.25,29.038513 c -7.287,-4.208 -19.213,-4.208 -26.5,0 L 62.25,102.07251 c -7.288002,4.20701 -13.25,14.535 -13.25,22.95 v 146.069 c 0,4.20798 1.491001,8.89399 3.893002,13.05298 L 202,198.05753 Z"
       id="path8" /><g
       id="g12"><path
         class="st3"
         d="m 202,300.0575 c -56.243,0 -102,-45.75699 -102,-101.99999 0,-56.243 45.757,-102.000007 102,-102.000007 36.29199,0 70.13901,19.529997 88.33099,50.968007 l -44.143,25.54401 c -9.105,-15.73601 -26.03799,-25.51201 -44.18801,-25.51201 -28.12199,0 -51,22.87801 -51,51 0,28.121 22.87801,51 51,51 18.152,0 35.08501,-9.776 44.191,-25.515 l 44.143,25.543 C 272.142,280.52652 238.29401,300.0575 202,300.0575 Z"
         id="path10" /></g><g
       id="g16"><polygon
         class="st3"
         points="270,192.39052 270,203.72353 281.33398,203.72353 281.33398,215.05753 292.66602,215.05753 292.66602,203.72353 304,203.72353 304,192.39052 292.66602,192.39052 292.66602,181.05753 281.33398,181.05753 281.33398,192.39052 "
         id="polygon14" /></g><g
       id="g20"><polygon
         class="st3"
         points="312.5,192.39052 312.5,203.72353 323.83402,203.72353 323.83402,215.05753 335.16598,215.05753 335.16598,203.72353 346.5,203.72353 346.5,192.39052 335.16598,192.39052 335.16598,181.05753 323.83402,181.05753 323.83402,192.39052 "
         id="polygon18" /></g></g></svg>
