<?xml version="1.0" encoding="UTF-8" standalone="no"?>
<svg
   viewBox="0 0 3.2682996 3.2682996"
   width="46.855999"
   height="46.855999"
   version="1.1"
   id="svg6"
   sodipodi:docname="canva-1.svg"
   inkscape:version="1.1 (c4e8f9ed74, 2021-05-24)"
   inkscape:export-filename="/home/takshak/projects/takshakramteke.github.io/images/icons/tech/canva.png"
   inkscape:export-xdpi="96"
   inkscape:export-ydpi="96"
   xmlns:inkscape="http://www.inkscape.org/namespaces/inkscape"
   xmlns:sodipodi="http://sodipodi.sourceforge.net/DTD/sodipodi-0.dtd"
   xmlns="http://www.w3.org/2000/svg"
   xmlns:svg="http://www.w3.org/2000/svg">
  <defs
     id="defs10" />
  <sodipodi:namedview
     id="namedview8"
     pagecolor="#ffffff"
     bordercolor="#666666"
     borderopacity="1.0"
     inkscape:pageshadow="2"
     inkscape:pageopacity="0.0"
     inkscape:pagecheckerboard="0"
     showgrid="false"
     width="46.856px"
     inkscape:zoom="11.965378"
     inkscape:cx="26.158806"
     inkscape:cy="23.484423"
     inkscape:window-width="1280"
     inkscape:window-height="956"
     inkscape:window-x="0"
     inkscape:window-y="0"
     inkscape:window-maximized="1"
     inkscape:current-layer="svg6" />
  <g
     id="g14"
     transform="scale(0.0187424)">
    <circle
       cx="87.190002"
       cy="87.190002"
       fill="#23bec7"
       r="87.190002"
       id="circle2" />
    <path
       d="m 89.22,88.66 c 2.55,-2.24 4.62,-4.35 7.35,-5.5 1.6,-0.67 3.37,-1.62 4.89,-0.15 1.52,1.47 0.56,3.08 0.1,4.66 -0.92,3.17 -1.85,6.35 -2.69,9.54 -0.25,0.93 -0.67,2 0.28,2.83 0.95,0.83 2.14,0.28 3.08,-0.2 3.48,-1.78 6.31,-3.89 5.87,-8.57 -0.26,-2.8 0,-5.78 2.59,-7.78 1,-0.79 2.21,-1.71 3.48,-0.83 1.27,0.88 0.36,2 0,3 a 25.79,25.79 0 0 0 -1,11.7 c 0.13,0.88 0,2.15 0.81,2.47 1.11,0.42 1.61,-1 2.32,-1.58 0.71,-0.58 1.19,-1.4 1.81,-2.08 1.64,-1.79 2.54,-3.22 0.36,-5.67 -2.53,-2.83 -1.77,-8.37 0.72,-11 a 5.11,5.11 0 0 1 5.77,-1.5 c 2.17,0.79 2.88,2.66 2.94,4.85 0.06,2.46 -1,4.62 -1.83,7 2.42,0.61 3.92,-0.75 5.28,-2.22 3.28,-3.56 7.08,-5.82 12.12,-5.29 3.65,0.38 5.74,2.35 5.55,5.22 a 4,4 0 0 1 -5.72,3.15 c -1.14,-0.61 -1,-1.17 0,-1.75 a 1.68,1.68 0 0 0 0.93,-2.06 2.5,2.5 0 0 0 -2.23,-1.71 5.62,5.62 0 0 0 -3.94,0.88 c -3.66,2.34 -5.71,8.84 -4,12.8 1,2.38 2.86,2.83 4.79,1.14 a 9.16,9.16 0 0 0 2.34,-3.68 10,10 0 0 1 1.19,-2.46 c 0.91,-1.21 2.17,-2.28 3.75,-1.63 1.58,0.65 0.77,2.29 0.51,3.4 -0.93,3.85 -1.72,7.6 1.54,10.84 a 0.84,0.84 0 0 1 0,1.24 1.3,1.3 0 0 1 -1.52,0.22 9.11,9.11 0 0 1 -5.2,-4.66 c -0.33,-0.72 -0.47,-1.77 -1.64,-0.74 a 6,6 0 0 1 -7.84,0.65 c -2.84,-1.82 -3.86,-4.55 -3.6,-7.82 0.05,-0.64 0.13,-1.26 0.21,-2 -3.27,0.27 -5.93,1 -7.8,4 a 18,18 0 0 1 -6.43,5.94 c -3.41,2 -4.74,1.38 -5.66,-2.37 -0.13,-0.52 -0.24,-1 -0.44,-2 a 26.24,26.24 0 0 1 -7.5,4.71 c -5.17,1.84 -8.17,-0.53 -7.41,-6 a 39.08,39.08 0 0 1 2.31,-8.2 c 0.24,-0.65 0.82,-1.45 0,-2 -0.6,-0.38 -1.23,0.26 -1.7,0.66 -3.19,2.71 -6,5.71 -6.92,10 a 16.27,16.27 0 0 1 -1.08,3.68 3.79,3.79 0 0 1 -4,2.4 c -1.8,-0.32 -0.64,-2.16 -1.14,-3.29 -1.92,1 -3.76,2 -5.66,2.87 -1.37,0.63 -3.16,1.13 -4.16,-0.05 -1.67,-2 -2.8,-1.31 -4.56,-0.19 -2.57,1.64 -5.52,0.94 -7.85,-1.77 -1.18,-1.37 -1.79,-1.28 -2.93,-0.06 a 26,26 0 0 1 -8.08,5.65 C 35.69,113 24,106.66 23.34,93.56 22.56,78.77 28.85,67 41.21,58.79 A 13.15,13.15 0 0 1 52.3,56.94 9.82,9.82 0 0 1 59.62,67 10.25,10.25 0 0 1 51.83,76.27 c -0.71,0.16 -1.63,0.44 -2,-0.23 -0.56,-0.9 0.33,-1.51 0.94,-2 3.34,-2.82 3.91,-6.49 3.28,-10.52 -0.6,-3.76 -3.28,-5.28 -6.85,-3.91 A 16.85,16.85 0 0 0 40.62,64.5 41.75,41.75 0 0 0 30.07,88 18.87,18.87 0 0 0 32,99 c 2.54,4.85 6.85,7 12.17,5.74 A 25,25 0 0 0 55.38,98.56 4.77,4.77 0 0 0 56.7,95.1 C 57.43,87.5 64,81.8 71.34,82.36 a 7.12,7.12 0 0 1 4.73,2 4,4 0 0 1 0.93,4.53 c -0.71,1.72 -2.29,2.28 -4.08,2.19 a 2.28,2.28 0 0 1 -2,-0.81 c -0.66,-1 0.6,-1.07 1,-1.57 1.12,-1.4 0.49,-3.07 -1.43,-3.46 a 5.49,5.49 0 0 0 -5.28,1.68 12.27,12.27 0 0 0 -3.36,10.63 c 0.2,1.48 0.83,2.93 2.46,3.37 C 65.94,101.36 67,100.14 68,99 a 8.63,8.63 0 0 0 1.57,-3.2 5.08,5.08 0 0 1 1.69,-2.8 c 1,-0.77 2.1,-1.4 3.28,-0.71 1.18,0.69 0.46,1.85 0.46,2.81 0,1.76 -1.9,3.81 0.45,5.16 1.26,0.72 6.34,-3.11 6.74,-4.91 0.63,-2.87 1.14,-5.77 1.71,-8.65 a 4.9,4.9 0 0 1 1.1,-2.77 3.62,3.62 0 0 1 4,-1 c 1.51,0.63 0.76,2 0.61,3.16 -0.08,0.69 -0.2,1.39 -0.39,2.57 z M 123,82 c -0.26,-0.7 -0.68,-1.38 -1.54,-1.29 -0.86,0.09 -1.11,0.88 -1.18,1.62 a 7,7 0 0 0 2.29,5.91 A 8.37,8.37 0 0 0 123,82 Z"
       fill="#ffffff"
       id="path4" />
  </g>
</svg>
