<?xml version="1.0" encoding="UTF-8" standalone="no"?>
<svg
   fill="none"
   height="46.873001"
   viewBox="-29.304255 -37.58357 8.7996284 9.3038505"
   width="46.873001"
   version="1.1"
   id="svg10"
   sodipodi:docname="esp.svg"
   inkscape:version="1.1 (c4e8f9ed74, 2021-05-24)"
   inkscape:export-filename="/home/takshak/projects/takshakramteke.github.io/images/icons/tech/esp.png"
   inkscape:export-xdpi="96"
   inkscape:export-ydpi="96"
   xmlns:inkscape="http://www.inkscape.org/namespaces/inkscape"
   xmlns:sodipodi="http://sodipodi.sourceforge.net/DTD/sodipodi-0.dtd"
   xmlns="http://www.w3.org/2000/svg"
   xmlns:svg="http://www.w3.org/2000/svg">
  <defs
     id="defs14" />
  <sodipodi:namedview
     id="namedview12"
     pagecolor="#ffffff"
     bordercolor="#666666"
     borderopacity="1.0"
     inkscape:pageshadow="2"
     inkscape:pageopacity="0.0"
     inkscape:pagecheckerboard="0"
     showgrid="false"
     width="46.873px"
     inkscape:zoom="8.4608"
     inkscape:cx="14.774017"
     inkscape:cy="32.857413"
     inkscape:window-width="1280"
     inkscape:window-height="956"
     inkscape:window-x="0"
     inkscape:window-y="0"
     inkscape:window-maximized="1"
     inkscape:current-layer="svg10" />
  <g
     fill="#e7352c"
     id="g8"
     transform="matrix(0.02326189,0,0,0.02326189,-29.556365,-37.584017)">
    <path
       d="m 131.967,298.073 a 28.186,28.186 0 0 1 -33.688,27.647 28.185,28.185 0 0 1 -22.147,-22.147 28.19,28.19 0 0 1 47.579,-25.432 28.19,28.19 0 0 1 8.256,19.932 z m 245.94,-29.342 A 292.167,292.167 0 0 0 130.305,21.129 185.334,185.334 0 0 0 89.355,50.651 V 77.887 A 231.984,231.984 0 0 1 321.15,309.49 h 27.237 a 195.21,195.21 0 0 0 29.521,-40.759 z"
       id="path2" />
    <path
       d="M 399.961,183.228 A 183.219,183.219 0 0 0 286.193,13.675 183.225,183.225 0 0 0 215.783,0.002 c -6.475,0 -12.761,0 -19.046,0.953 l -4.19,12.19 a 315.224,315.224 0 0 1 193.13,192.939 l 12.189,-4.381 c 0,-6.095 1.143,-12.19 1.143,-19.046 M 217.891,399.964 A 217.891,217.891 0 0 1 0.001,183.026 216.367,216.367 0 0 1 63.806,28.941 l 12.38,11.619 a 201.127,201.127 0 0 0 0,285.695 201.133,201.133 0 0 0 285.695,0 l 11.619,11.618 a 216.184,216.184 0 0 1 -155.609,62.091 z"
       id="path4" />
    <path
       d="M 215.438,322.074 A 126.65,126.65 0 0 0 165.727,209.51 123.998,123.998 0 0 0 101.922,183.607 11.615,11.615 0 0 1 91.827,171.418 a 11.24,11.24 0 0 1 7.945,-9.865 11.222,11.222 0 0 1 4.436,-0.42 149.516,149.516 0 0 1 133.324,163.417 130.44,130.44 0 0 1 -4.952,25.713 l 33.14,9.332 a 183.963,183.963 0 0 0 28.57,-10.856 202.753,202.753 0 0 0 3.619,-39.045 209.512,209.512 0 0 0 -177.702,-206.843 92.199,92.199 0 0 0 -33.332,0 72.567,72.567 0 0 0 -35.997,22.284 71.234,71.234 0 0 0 31.807,114.278 164.882,164.882 0 0 0 17.904,3.238 66.856,66.856 0 0 1 55.615,65.9 66.09,66.09 0 0 1 -10.666,35.998 l 22.856,14.666 a 169.675,169.675 0 0 0 34.283,5.713 125.335,125.335 0 0 0 12.571,-43.806"
       id="path6" />
  </g>
</svg>
