<?xml version="1.0" encoding="UTF-8" standalone="no"?>
<svg
   width="52.542999"
   height="46.877998"
   viewBox="0 0 26.271499 23.438999"
   preserveAspectRatio="xMidYMid"
   version="1.1"
   id="svg4"
   sodipodi:docname="flask.svg"
   inkscape:version="1.1 (c4e8f9ed74, 2021-05-24)"
   xmlns:inkscape="http://www.inkscape.org/namespaces/inkscape"
   xmlns:sodipodi="http://sodipodi.sourceforge.net/DTD/sodipodi-0.dtd"
   xmlns="http://www.w3.org/2000/svg"
   xmlns:svg="http://www.w3.org/2000/svg">
  <defs
     id="defs8" />
  <sodipodi:namedview
     id="namedview6"
     pagecolor="#ffffff"
     bordercolor="#666666"
     borderopacity="1.0"
     inkscape:pageshadow="2"
     inkscape:pageopacity="0.0"
     inkscape:pagecheckerboard="0"
     showgrid="false"
     width="46.878px"
     inkscape:zoom="10.328125"
     inkscape:cx="20.526475"
     inkscape:cy="24.496218"
     inkscape:window-width="1280"
     inkscape:window-height="956"
     inkscape:window-x="0"
     inkscape:window-y="0"
     inkscape:window-maximized="1"
     inkscape:current-layer="svg4" />
  <g
     id="g11"
     transform="matrix(0.82108366,0,0,0.82108366,2.1892731e-4,-1.1935509)"
     style="fill:#000000"
     inkscape:export-filename="/home/takshak/projects/takshakramteke.github.io/images/icons/tech/flask.png"
     inkscape:export-xdpi="96"
     inkscape:export-ydpi="96">
    <path
       d="M 9.563,26.873 C 8.343,25.913 7.043,24.995 6.155,23.701 4.285,21.418 2.845,18.776 1.861,15.998 1.266,14.192 1.061,12.255 0.295,10.518 -0.507,9.258 0.433,7.878 1.815,7.478 2.43,7.36 3.511,6.778 2.205,7.194 1.035,8.052 0.922,6.414 2.122,6.31 2.942,6.2 3.242,5.53 2.962,4.928 2.082,4.354 5.094,3.725 3.578,2.868 2,1.168 5.786,0.84 4.852,2.774 4.63,4.26 7.498,2.5 6.832,4.218 c 0.677,0.825 2.534,0.188 2.487,1.345 0.986,0.068 1.324,0.897 2.25,0.96 0.96,0.433 2.697,0.774 3.023,1.855 -0.95,0.753 -3.153,-1.555 -3.26,0.53 0.288,3.08 0.214,6.252 1.34,9.185 0.533,1.775 1.825,3.173 2.99,4.556 1.117,1.354 2.63,2.308 4.17,3.11 1.352,0.638 2.81,1.06 4.283,1.326 0.597,-0.457 1.653,-2.156 2.584,-1.44 0.045,0.806 -1.85,1.684 -0.09,1.595 1.035,-0.312 1.752,0.8 2.603,-0.204 0.785,0.93 3.26,-0.593 2.703,1.306 -0.755,0.487 -1.856,0.193 -2.612,0.863 -1.247,-0.623 -2.24,0.557 -3.62,0.408 -1.533,0.275 -3.092,0.385 -4.646,0.387 -2.55,-0.2 -5.153,-0.286 -7.578,-1.174 -1.367,-0.397 -2.7,-1.175 -3.9,-1.954 z m 2.153,0.933 c 1.334,0.576 2.64,1.184 4.1,1.368 2.32,0.322 4.715,0.82 7.043,0.366 -1.054,-0.476 -2.143,0.185 -3.193,-0.34 -1.26,0.27 -2.6,-0.07 -3.9,-0.237 -1.455,-0.648 -3.026,-1.094 -4.388,-1.936 -1.703,-0.622 0.88,0.798 1.34,0.913 1.064,0.604 -1.17,-0.3 -1.486,-0.56 -0.892,-0.5 -1.005,-0.396 -0.088,0.112 l 0.56,0.314 z M 9.176,26.012 C 10.469,26.492 9.17,25.102 8.579,25.182 8.317,24.727 7.576,24.439 8.099,24.195 7.159,24.521 7.115,22.955 6.674,23.179 5.68,22.865 6.287,21.753 5.104,21.069 4.996,20.349 3.928,19.726 3.588,18.641 3.438,18.085 2.381,16.491 3.03,17.975 c 0.552,1.43 1.524,2.653 2.334,3.875 0.628,1.164 1.37,2.38 2.514,3.107 0.386,0.37 0.758,0.937 1.302,1.053 z m -3.724,-4.09 c 0.045,-0.195 0.236,0.422 0,0 z m 5.273,4.663 c 0.286,-0.128 -0.412,-0.162 0,0 z m 0.7,0.256 c -0.073,-0.353 -0.32,0.198 0,0 z m 0.88,0.366 c 0.418,-0.398 -0.645,-0.25 0,0 z m 1.506,0.84 c 0.254,-0.375 -0.813,-0.14 0,0 z m -2.89,-2.015 c 0.65,-0.42 -0.84,-0.006 0,0 z m 0.66,0.33 c -0.02,-0.222 -0.235,0.1 0,0 z m 3.293,2.056 c 0.53,0.334 3.092,0.732 1.488,0.137 -0.27,0.056 -2.975,-0.766 -1.488,-0.137 z M 9.646,24.346 c -0.05,-0.222 -0.822,-0.246 0,0 z m 1.533,0.894 c 0.4,-0.28 -0.828,-0.215 0,0 z m 1.3,0.8 c 0.573,-0.216 -0.928,-0.217 0,0 z M 9.02,23.665 c 0.62,0.476 2.506,0.06 0.95,-0.284 -0.707,-0.377 -2.3,-0.635 -1.214,0.227 l 0.263,0.057 z m 4.32,2.637 c 0.26,-0.44 -1.086,-0.252 0,0 z m -1.313,-1.043 c 1.52,0.43 -1.277,-0.96 -0.375,-0.16 l 0.2,0.09 0.175,0.068 z m 2.632,1.52 c 1.44,0.014 -1.3,-0.2 0,0 z M 8.466,22.832 c -0.056,-0.268 -0.355,0.022 0,0 z m 8.627,5.312 c 0.038,-0.484 -0.47,0.36 0,0 z m -6.17,-3.81 c -0.087,-0.255 -0.45,-0.01 0,0 z m -2.32,-1.67 c 0.826,-0.05 -1.13,-0.364 0,0 z M 5.856,20.89 c -0.103,-0.396 -0.898,-0.712 0,0 z m 7.212,4.577 c -0.15,-0.173 -0.07,0.037 0,0 z m 4.488,2.755 c -0.014,-0.264 -0.244,0.1 0,0 z m -4.885,-3.165 c 0.08,-0.34 -0.705,-0.103 0,0 z m -3.344,-2.12 c 0.615,-0.065 -0.985,-0.415 0,0 z m 5.656,3.515 c 0.958,-0.38 -0.933,-0.185 0,0 z m -2.942,-1.997 c 1.103,0.142 -1.313,-0.75 -0.243,-0.08 z m 3.835,2.358 c 1.03,-0.615 0.69,1.443 1.748,0.174 1.043,-0.762 -0.9,0.942 0.384,0.136 0.93,-0.622 2.303,0.295 3.17,0.593 0.624,-0.03 1.23,0.54 1.87,0.193 1.23,-0.332 -2.408,-0.492 -1.454,-1.08 -1.126,0.328 -1.958,-0.39 -2.513,-1.112 -1.264,-0.292 -2.724,-0.938 -3.355,-2.056 -0.257,-0.42 0.37,0.06 -0.222,-0.627 -0.76,-0.677 -1.14,-1.446 -1.652,-2.27 -0.61,-0.325 -0.683,-1.284 -0.744,-0.032 0.005,-0.79 -0.737,-1.323 -0.92,-1.102 -0.003,-0.76 0.795,-0.38 0.236,-0.942 -0.12,-0.79 -0.516,-1.61 -0.634,-2.502 -0.185,-0.43 -0.026,-1.35 -0.63,-0.377 -0.22,1.027 -0.073,-1.262 0.27,-0.508 0.45,-0.77 -0.162,-0.68 -0.186,-0.573 0.293,-0.65 0.186,-1.572 -0.077,-1.22 0.156,-0.69 0.247,-2.535 -0.233,-2.208 0.29,-0.72 0.552,-3.297 -0.712,-2.315 C 9.71,8.992 8.824,9.171 8.405,9.379 9.718,10.103 8.273,9.641 7.737,9.525 c -0.07,0.67 -0.6,0.38 -1.26,0.387 1.058,0.13 -0.515,1.08 -1.12,0.712 -0.788,0.376 0.68,1.316 0.015,1.607 0.082,0.437 -1.207,-0.158 -1.106,0.854 -0.764,-0.322 -0.105,1.2 0.278,0.685 1.3,0.352 0.915,1.154 0.948,1.917 -0.212,0.444 -1.046,-1.044 -0.186,-0.975 -0.68,-1.103 -0.75,-0.4 -1.315,0.114 -0.13,0.037 1.44,0.73 0.454,1.07 0.867,0.134 0.892,0.893 1.068,1.372 0.52,0.543 0.413,-0.6 1.037,0.053 -0.395,-0.58 -2.09,-1.637 -0.725,-1.3 -0.007,-0.584 -0.247,-1.056 0.172,-1.045 0.415,-0.75 -0.434,1.85 0.5,0.896 0.258,-0.113 0.323,-0.75 0.787,0.06 0.674,0.664 0.244,1.144 -0.708,0.536 0.17,0.578 1.273,0.784 1.065,1.687 0.22,0.795 0.527,0.502 0.795,0.456 0.2,0.772 0.33,0.204 0.34,-0.163 0.962,0.206 0.736,0.775 1.038,1.172 0.663,0.3 -0.95,-2.028 0.19,-0.7 1.197,1.08 0.45,1.533 -0.625,1.36 0.68,-0.055 0.9,0.92 1.75,0.885 0.776,0.37 1.3,1.787 -0.036,1.196 -0.463,-0.418 -2.106,-0.934 -0.764,-0.14 1.238,0.574 2.222,0.916 3.416,1.637 0.854,0.6 1.223,1.308 1.547,1.447 -0.718,0.343 -2.164,-0.274 -1.1,-0.463 -0.67,-0.122 -1.424,-0.46 -0.782,0.374 0.546,0.456 1.933,0.408 2.182,0.46 -0.21,0.464 -0.573,0.5 0.008,0.537 -0.648,0.346 0.208,0.4 0.268,0.597 z M 14.55,23.069 c -0.395,-0.413 -0.497,-1.185 -0.07,-0.513 0.22,0.088 0.7,1.263 0.07,0.513 z m 4.32,2.731 c 0.246,-0.016 0.007,0.187 0,0 z m -4.94,-3.755 c -0.016,-0.624 0.142,0.48 0,0 z M 13.5,21.468 c -0.497,-0.96 0.625,0.27 0,0 z m -5.202,-3.6 c 0.292,-0.078 0.144,0.498 0,0 z m 4.14,2.244 c 0.18,-0.673 0.2,0.564 0,0 z M 9.513,18.078 c -0.206,-0.37 0.43,0.348 0,0 z m 2.51,0.804 c -0.47,-1.053 0.334,-0.575 0.105,0.172 z M 7.695,15.996 c -0.2,-0.346 -0.557,-1.36 -0.445,-1.67 0.1,0.504 1.072,2.17 0.476,0.7 -0.658,-1.24 0.787,0.402 0.936,0.712 0.07,0.307 -0.406,-0.084 -0.084,0.638 C 7.99,15.554 8.231,16.83 7.696,16.006 Z M 6.358,15.074 c 0.055,-0.804 0.306,0.55 0,0 z m 0.602,0.208 c 0.287,-0.606 0.486,0.845 0,0 z m -1.46,-1.1 c -0.498,-0.495 -0.858,-0.95 0.024,-0.307 0.34,0.013 -0.755,-1.037 0.082,-0.334 0.88,0.16 0.434,1.443 -0.105,0.64 z m 0.76,-0.02 c 0.29,-0.287 0.154,0.282 0,0 z m 0.468,0.15 c -0.44,-0.822 0.532,0.345 0,0 z m -0.93,-0.888 c -1.448,-1.29 1.82,0.673 0.236,0.24 z m 4.148,2.41 C 9.319,15.459 9.779,13.19 9.993,14.741 c 0.61,-0.197 -0.034,0.802 0.42,0.792 -0.07,0.63 -0.275,0.857 -0.467,0.3 z m 1.534,0.907 c 0.06,-0.684 0.13,0.468 0,0 z m -0.266,-0.264 c 0.07,-0.292 0.006,0.344 0,0 z M 6.092,13 C 5.162,11.717 8.795,14.298 6.688,13.325 6.468,13.267 6.203,13.247 6.092,13 Z m 2.955,1.566 c -0.088,-1.08 0.196,0.18 0,0 z m 2.243,1.44 c 0.173,-0.615 0.013,0.407 0,0 z M 6.235,12.51 c 0.553,-0.118 2.3,0.97 0.695,0.31 C 6.753,12.624 6.374,12.713 6.235,12.51 Z m 4.746,2.366 c 0.06,-1.105 0.33,-0.66 0.002,0.16 z m -4.335,-2.75 c 0.226,-0.33 -0.598,-1.493 0.118,-0.417 0.3,0.246 0.897,0.412 0.38,0.516 0.815,0.72 -0.2,0.195 -0.497,-0.1 z m 4.1,2.406 c 0.155,-1.26 0.137,0.737 0,0 z m -4.57,-3.568 c 0.172,-0.074 0.09,0.23 0,0 z m 1.07,0.637 c 0.275,-0.578 0.508,0.644 0,0 z m 3.017,1.678 c -0.002,-0.22 0.057,0.323 0,0 z m -0.175,-0.386 c -0.418,-1.033 0.4,0.547 0,0 z M 9.831,12.215 c -0.07,-0.427 0.24,0.536 0,0 z m 0.418,-0.68 c -0.288,-0.506 0.363,-2.23 0.436,-1.16 -0.303,0.834 -0.087,1.3 0.123,0.18 0.39,-0.88 -0.084,1.737 -0.56,0.98 z m 0.43,-2.566 c 0.125,-0.154 0.028,0.185 0,0 z M 9.96,23.12 c -0.17,-0.15 0.022,0.094 0,0 z m 1.48,0.748 c 0.823,0.212 0.82,-0.128 0.075,-0.23 -0.4,-0.372 -1.662,-0.767 -0.532,-0.046 0.074,0.2 0.31,0.185 0.457,0.275 z m -2.92,-1.94 c 0.453,0.34 1.707,0.958 0.646,0.13 0.358,-0.416 -0.685,-0.638 -0.34,-0.916 -0.88,-0.54 -0.695,-0.5 -0.078,-0.473 -1.058,-0.473 0.153,-0.437 0.096,-0.68 -0.408,-0.08 -2.026,-0.72 -1.074,0.052 -0.968,-0.493 -0.23,0.184 -0.523,0.113 -1,-0.27 0.88,0.754 -0.157,0.5 0.567,0.45 1.528,1.153 0.24,0.476 -0.17,0.244 0.922,0.615 1.2,0.8 z m 1.547,0.89 c 1.88,0.606 -0.923,-0.74 0,0 z m 7.92,4.798 c 0.024,-0.374 -0.257,0.32 0,0 z m 0.814,0.343 c 0.434,-0.42 0.018,0.67 0.72,-0.103 0.007,-0.553 -0.02,-0.88 -0.806,-0.208 -0.217,0.12 -0.313,0.63 0.087,0.31 z M 5.878,19.84 c -0.133,-0.524 -0.934,-0.522 0,0 z m 0.87,0.57 c -0.323,-0.535 -1.152,-0.485 0,0 z m 4.946,2.983 c 0.483,0.43 2.218,0.315 0.586,0.053 -0.24,-0.357 -1.533,-0.27 -0.586,-0.053 z m 6.798,4.2 c 0.743,-0.624 -0.72,0.278 0,0 z m 1.546,1.062 c 0.005,-0.2 -0.32,0.087 0,0 z m 0.003,-0.28 c 0.823,-0.87 -0.797,0.05 0,0 z M 3.74,18.05 C 3.04,17.05 3.304,16.6 2.628,15.783 2.5,15.158 1.468,13.74 2.094,15.243 c 0.574,0.88 0.744,2.24 1.646,2.81 z m 16.04,10.046 c 1.515,-0.978 -0.62,-0.426 0,0 z m 1.156,0.453 c 0.76,-0.65 -0.48,-0.136 0,0 z M 5.62,18.735 c 0.217,-0.323 -0.56,-0.042 0,0 z m 15.075,9.505 c 0.734,-0.473 -0.17,-0.4 -0.133,0.043 z m -9.962,-6.28 c -0.025,-0.32 -0.388,0.027 0,0 z m 0.615,0.354 c -0.196,-0.396 -0.3,0.062 0,0 z m 10.525,6.245 c 0.94,-0.68 -0.57,-0.13 -0.197,0.13 z m -0.36,-0.174 c 0.767,-0.642 -0.81,0.284 0,0 z m 1.84,1.225 c 0.514,-0.344 -0.625,-0.11 0,0 z M 6.093,18.5 c 0.69,0.154 2.755,1.698 1.537,0.107 -0.624,-0.185 -0.25,-1.71 -0.887,-1.44 0.427,0.714 0.35,1.018 -0.546,0.568 -1.127,-0.55 -0.633,0.272 -0.413,0.5 -0.3,0.07 0.397,0.26 0.31,0.266 z m -3.14,-2.48 c 0.123,-0.51 -1.137,-2.81 -0.595,-1.152 0.195,0.347 0.175,1.005 0.595,1.152 z m 5.766,3.555 c -0.356,-0.297 -0.017,-0.042 0,0 z m 0.874,0.204 c 0,-0.54 -0.966,-0.22 0,0 z m 7.577,4.776 c -0.145,-0.37 -0.57,-0.008 0,0 z m 0.364,0.266 c -0.054,-0.207 -0.2,0.04 0,0 z m 3.003,1.892 c 0.29,-0.213 -0.36,-0.028 0,0 z M 4.52,16.422 c 0.826,-0.32 -0.885,-0.228 0,0 z M 16.5,23.97 c -0.01,-0.535 -0.527,0.133 0,0 z M 4.193,15.66 c 0.53,-0.18 -0.49,-0.118 0,0 z m 1.54,0.746 c -0.01,-0.176 -0.163,0.067 0,0 z m 18.788,11.52 c 0.682,-0.138 2.238,0.347 2.49,-0.18 -0.83,-0.02 -2.867,-0.585 -2.963,0.134 l 0.18,0.03 0.293,0.018 z M 6.223,16.53 c 0.012,-0.542 -0.422,-0.02 0,0 z m -4.05,-2.81 c -0.184,-1.032 -0.7,-0.156 0,0 z m 0.965,0.243 c 0.012,-0.332 -0.884,-0.298 0,0 z m 0.552,0.27 c -0.16,-0.13 -0.124,0.163 0,0 z m 3.473,2.227 c 0.164,-0.15 -0.387,-0.11 0,0 z m -3.84,-2.84 c -0.094,-0.78 -1.12,-0.117 0,0 z m -1.98,-1.285 c -0.028,-0.36 -0.193,0.136 0,0 z m 0.295,-0.222 c -0.048,-0.427 -0.253,0.054 0,0 z m 1.627,0.97 c 0.688,-0.27 -1.253,-0.56 -0.14,-0.05 z M 25.043,26.54 c 0.44,-0.404 -0.56,-0.125 0,0 z m 2.63,1.363 c 0.177,-0.52 -0.445,0.07 0,0 z M 3.43,12.235 c 0.073,-0.505 -0.546,0.1 0,0 z M 1.114,10.685 C 0.992,9.97 1.01,8.72 2.198,9.142 0.611,9.458 3.298,11.116 2.958,9.806 3.626,9.839 4.264,9.411 3.913,10.059 5.23,9.916 6.14,8.774 7.412,8.935 c 1,-0.132 2.072,-0.23 3.14,-0.63 0.877,-0.063 1.72,-1.007 1.24,-1.567 C 10.596,6.638 9.344,6.786 8.022,7.05 6.557,7.354 5.227,7.933 3.749,8.18 2.309,8.374 4.039,8.713 3.626,8.79 2.876,9.05 4.523,9.226 3.529,9.502 2.915,9.385 2.276,9.174 2.539,8.527 1.159,8.707 -0.054,9.279 1.037,10.683 l 0.08,10e-4 z M 4.442,9 C 4.765,7.808 6.175,9.98 4.972,9.16 4.829,9.052 4.592,8.965 4.442,9 Z M 4.505,8.422 c 0.467,-0.347 0.248,0.195 0,0 z m 0.593,0.01 c 0.043,-0.548 1.358,0.3 0.217,0.197 z m 0.81,-0.326 c 0.297,-0.347 0.086,0.307 0,0 z m 0.208,-0.14 c 0.494,-0.593 2.793,-0.38 1.1,-0.058 -0.45,-0.34 -0.797,0.2 -1.1,0.058 z m 3,-0.463 c -0.074,-1.62 1.492,0.575 0,0 z M 9.968,7.498 c 0.31,-0.816 1.21,-0.328 0.145,-0.164 0.023,0.087 -0.032,0.422 -0.145,0.164 z m -6.873,4.327 c 0.93,-0.57 -0.987,-0.494 0,0 z m 0.688,0.2 c 0.326,-0.347 -0.7,-0.14 0,0 z M 1.757,10.57 c 0.53,-0.41 -0.63,-0.155 0,0 z m 27.47,17.185 c 0.015,-0.474 -0.406,0.213 0,0 z m -2.79,-1.905 c 0.08,-0.545 -0.36,0.047 0,0 z m 3.56,2.09 c 0.743,0.003 2.252,-0.23 0.635,-0.23 -0.254,0.04 -1.48,0.03 -0.635,0.23 z M 4.39,11.673 c 0.602,-0.04 0.94,-0.663 -0.117,-0.628 -1.64,-0.17 1.446,0.562 -0.2,0.352 -0.222,0.147 0.314,0.316 0.327,0.275 z m 0.53,0.268 c -0.063,-0.386 -0.186,0.205 0,0 z m 0.63,-1.676 c 0.26,-0.324 -0.36,-0.087 0,0 z m -2,-3.344 C 4.624,6.556 6.092,6.146 6.6,7.101 6.084,6.481 6.392,5.869 6.88,6.777 7.57,7.695 7.914,6.359 7.466,6.051 7.976,6.685 8.556,6.985 7.808,6.091 8.623,5.111 6.178,6.219 5.622,6.208 5.355,6.328 2.862,6.844 3.552,6.921 Z M 4.18,5.716 C 4.792,5.254 6.298,5.991 5.332,5.256 5.237,5.173 3.217,5.813 4.18,5.716 Z M 6.412,5.808 C 7.128,5.826 6.102,4.845 6.956,5.29 6.816,4.832 5.962,4.747 5.544,4.563 5.308,4.981 6.024,5.813 6.411,5.808 Z M 4.572,3.782 c 0.248,-0.336 -0.435,0.17 0,0 z M 5.48,4 C 6.635,3.847 5.186,3.503 5.247,3.988 Z M 3.776,2.67 C 2.963,1.608 5.306,2.848 4.479,1.737 3.783,1.184 3.116,2.361 3.776,2.67 Z M 14.21,8.29 C 14.583,7.63 12.67,7.4 13.96,8.056 c 0.118,0.04 0.092,0.28 0.25,0.234 z"
       id="path2"
       style="fill:#000000" />
  </g>
</svg>
