<?xml version="1.0" encoding="UTF-8" standalone="no"?>
<!-- Generator: Adobe Illustrator 22.1.0, SVG Export Plug-In . SVG Version: 6.00 Build 0)  -->

<svg
   version="1.1"
   id="Layer_1"
   x="0px"
   y="0px"
   viewBox="0 0 58.252 46.877998"
   xml:space="preserve"
   sodipodi:docname="google-cloud-1.svg"
   width="58.251999"
   height="46.877998"
   inkscape:version="1.1 (c4e8f9ed74, 2021-05-24)"
   inkscape:export-filename="/home/takshak/projects/takshakramteke.github.io/images/icons/tech/GC.png"
   inkscape:export-xdpi="96"
   inkscape:export-ydpi="96"
   xmlns:inkscape="http://www.inkscape.org/namespaces/inkscape"
   xmlns:sodipodi="http://sodipodi.sourceforge.net/DTD/sodipodi-0.dtd"
   xmlns="http://www.w3.org/2000/svg"
   xmlns:svg="http://www.w3.org/2000/svg"><defs
   id="defs17" /><sodipodi:namedview
   id="namedview15"
   pagecolor="#ffffff"
   bordercolor="#666666"
   borderopacity="1.0"
   inkscape:pageshadow="2"
   inkscape:pageopacity="0.0"
   inkscape:pagecheckerboard="0"
   showgrid="false"
   height="46.878px"
   inkscape:zoom="7.7903653"
   inkscape:cx="30.678921"
   inkscape:cy="21.436735"
   inkscape:window-width="1280"
   inkscape:window-height="956"
   inkscape:window-x="0"
   inkscape:window-y="0"
   inkscape:window-maximized="1"
   inkscape:current-layer="Layer_1" />
<style
   type="text/css"
   id="style2">
	.st0{fill:#EA4335;}
	.st1{fill:#4285F4;}
	.st2{fill:#34A853;}
	.st3{fill:#FBBC05;}
</style>
<g
   id="g12"
   transform="matrix(0.02441723,0,0,0.02441723,-9.6378178e-4,-0.00113408)">
	<path
   class="st0"
   d="m 1513.8,528.7 h 72.8 l 207.4,-207.4 10.2,-88 C 1418.3,-107.3 829.2,-70.6 488.6,315.3 393.9,422.5 325.2,550 287.8,688 c 23.1,-9.5 48.7,-11 72.8,-4.4 l 414.7,-68.4 c 0,0 21.1,-34.9 32,-32.7 184.5,-202.6 495,-226.2 708,-53.8 z"
   id="path4" />
	<path
   class="st1"
   d="M 2089.4,688 C 2041.7,512.5 1943.9,354.7 1807.8,234 l -291,291 c 122.9,100.4 192.9,251.7 189.9,410.4 v 51.7 c 143.1,0 259,116 259,259 0,143.1 -116,259 -259,259 h -518.1 l -51.7,52.4 v 310.7 l 51.7,51.7 h 518.1 c 297,2.3 560.5,-190.2 648.7,-473.8 88,-283.7 -20,-591.7 -266,-758.1 z"
   id="path6" />
	<path
   class="st2"
   d="m 669.8,1917 h 518.1 V 1502.3 H 669.8 c -36.9,0 -73.4,-7.9 -107,-23.3 l -72.8,22.5 -208.8,207.4 -18.2,72.8 c 117.1,88.4 260,135.9 406.8,135.3 z"
   id="path8" />
	<path
   class="st3"
   d="M 669.8,571.6 C 382,573.3 127.1,757.6 35.3,1030.3 -56.5,1303 35,1604 263.1,1779.4 L 563.6,1478.9 C 433.2,1420 375.3,1266.6 434.2,1136.2 c 58.9,-130.4 212.3,-188.3 342.7,-129.4 57.4,26 103.4,72 129.4,129.4 L 1206.8,835.7 C 1078.9,668.6 880.2,570.9 669.8,571.6 Z"
   id="path10" />
</g>
</svg>
