<?xml version="1.0" encoding="UTF-8" standalone="no"?>
<svg
   width="90.055"
   height="46.877998"
   viewBox="0 0 9.221632 4.7988172"
   preserveAspectRatio="xMinYMin meet"
   version="1.1"
   id="svg8"
   sodipodi:docname="php-1.svg"
   inkscape:version="1.1 (c4e8f9ed74, 2021-05-24)"
   xmlns:inkscape="http://www.inkscape.org/namespaces/inkscape"
   xmlns:sodipodi="http://sodipodi.sourceforge.net/DTD/sodipodi-0.dtd"
   xmlns="http://www.w3.org/2000/svg"
   xmlns:svg="http://www.w3.org/2000/svg">
  <defs
     id="defs12" />
  <sodipodi:namedview
     id="namedview10"
     pagecolor="#ffffff"
     bordercolor="#666666"
     borderopacity="1.0"
     inkscape:pageshadow="2"
     inkscape:pageopacity="0.0"
     inkscape:pagecheckerboard="0"
     showgrid="false"
     inkscape:zoom="7.5136"
     inkscape:cx="49.776406"
     inkscape:cy="28.947509"
     inkscape:window-width="1280"
     inkscape:window-height="953"
     inkscape:window-x="0"
     inkscape:window-y="37"
     inkscape:window-maximized="1"
     inkscape:current-layer="svg8" />
  <g
     id="g17"
     transform="matrix(0.03602212,0,0,0.03602212,-1.536e-5,-2.4917086e-7)">
    <g
       fill-rule="evenodd"
       id="g6">
      <ellipse
         fill="#8993be"
         cx="128"
         cy="66.629997"
         rx="128"
         ry="66.629997"
         id="ellipse2" />
      <path
         d="M 35.945,106.082 49.973,35.068 H 82.41 c 14.027,0.877 21.041,7.89 21.041,20.165 0,21.041 -16.657,33.315 -31.562,32.438 H 56.11 l -3.507,18.411 z M 59.616,74.521 64,48.219 h 11.397 c 6.137,0 10.52,2.63 10.52,7.89 -0.876,14.905 -7.89,17.535 -15.78,18.412 h -10.52 z m 40.576,13.15 14.027,-71.013 h 16.658 l -3.507,18.41 h 15.78 c 14.028,0.877 19.288,7.89 17.535,16.658 l -6.137,35.945 h -17.534 l 6.137,-32.438 c 0.876,-4.384 0.876,-7.014 -5.26,-7.014 H 124.74 l -7.89,39.452 z m 53.233,18.411 14.027,-71.014 h 32.438 c 14.028,0.877 21.042,7.89 21.042,20.165 0,21.041 -16.658,33.315 -31.562,32.438 h -15.781 l -3.507,18.411 z m 23.67,-31.561 4.384,-26.302 h 11.398 c 6.137,0 10.52,2.63 10.52,7.89 -0.876,14.905 -7.89,17.535 -15.78,18.412 h -10.521 z"
         fill="#232531"
         id="path4" />
    </g>
  </g>
</svg>
