<?xml version="1.0" encoding="UTF-8" standalone="no"?>
<svg
   height="46.877998"
   version="1.1"
   viewBox="0 0 46.877998 46.877998"
   width="46.877998"
   xml:space="preserve"
   id="svg14"
   sodipodi:docname="python.svg"
   inkscape:version="1.1 (c4e8f9ed74, 2021-05-24)"
   xmlns:inkscape="http://www.inkscape.org/namespaces/inkscape"
   xmlns:sodipodi="http://sodipodi.sourceforge.net/DTD/sodipodi-0.dtd"
   xmlns="http://www.w3.org/2000/svg"
   xmlns:svg="http://www.w3.org/2000/svg"><defs
     id="defs18" /><sodipodi:namedview
     id="namedview16"
     pagecolor="#ffffff"
     bordercolor="#666666"
     borderopacity="1.0"
     inkscape:pageshadow="2"
     inkscape:pageopacity="0.0"
     inkscape:pagecheckerboard="0"
     showgrid="false"
     width="46.878px"
     inkscape:zoom="0.9128859"
     inkscape:cx="219.08543"
     inkscape:cy="268.92736"
     inkscape:window-width="1280"
     inkscape:window-height="953"
     inkscape:window-x="0"
     inkscape:window-y="37"
     inkscape:window-maximized="1"
     inkscape:current-layer="svg14" /><g
     id="g26"
     transform="matrix(0.10265865,0,0,0.10265865,-2.8416365,-2.8416432)"><g
       id="_x32_67-python"><g
         id="g10"><path
           d="m 194.005,240.252 h 105.054 c 29.216,0 52.529,-24.101 52.529,-53.414 V 86.603 c 0,-28.525 -24.002,-49.871 -52.529,-54.691 -35.214,-5.804 -73.478,-5.509 -105.054,0.097 -44.462,7.87 -52.527,24.298 -52.527,54.693 v 21.453 H 246.63 v 31.959 H 102.033 c -30.591,0 -57.349,18.394 -65.709,53.315 -9.64,40.035 -10.033,65.02 0,106.826 7.476,31.085 25.28,53.314 55.872,53.314 h 36.101 v -48.001 c -0.001,-34.723 30.001,-65.316 65.708,-65.316 z"
           style="fill:#347ab4"
           id="path2" /><path
           d="M 474.975,209.372 C 467.4,178.977 453.04,156.057 422.448,156.057 h -39.443 v 46.626 c 0,36.199 -30.692,66.691 -65.71,66.691 H 212.24 c -28.724,0 -52.528,24.594 -52.528,53.414 v 100.138 c 0,28.524 24.788,45.246 52.528,53.413 33.247,9.737 65.215,11.509 105.054,0 26.462,-7.675 52.529,-23.116 52.529,-53.413 V 401.929 H 264.867 v -32.417 h 157.58 c 30.593,0 41.904,-21.346 52.527,-53.314 11.018,-32.954 10.527,-64.628 0.001,-106.826 z"
           style="fill:#ffca1d"
           id="path4" /><path
           d="m 187.415,89.594 c -10.479,0 -18.975,-8.591 -18.975,-19.164 0.094,-10.668 8.496,-19.259 18.975,-19.259 10.385,0 18.976,8.685 18.976,19.259 -0.001,10.573 -8.497,19.164 -18.976,19.164 z"
           style="fill:#ffffff"
           id="path6" /><path
           d="m 314.908,460.076 c -10.479,0 -18.976,-8.591 -18.976,-19.164 0.095,-10.668 8.496,-19.259 18.976,-19.259 10.385,0 18.976,8.685 18.976,19.259 0,10.573 -8.496,19.164 -18.976,19.164 z"
           style="fill:#ffffff"
           id="path8" /></g></g></g><g
     id="Layer_1" /></svg>
