<?xml version="1.0" encoding="UTF-8" standalone="no"?>
<svg
   width="46.877998"
   height="46.877998"
   viewBox="0 0 2.2974344 2.2974532"
   version="1.1"
   id="svg22"
   sodipodi:docname="wordpress.svg"
   inkscape:version="1.1 (c4e8f9ed74, 2021-05-24)"
   xmlns:inkscape="http://www.inkscape.org/namespaces/inkscape"
   xmlns:sodipodi="http://sodipodi.sourceforge.net/DTD/sodipodi-0.dtd"
   xmlns:xlink="http://www.w3.org/1999/xlink"
   xmlns="http://www.w3.org/2000/svg"
   xmlns:svg="http://www.w3.org/2000/svg">
  <sodipodi:namedview
     id="namedview24"
     pagecolor="#ffffff"
     bordercolor="#666666"
     borderopacity="1.0"
     inkscape:pageshadow="2"
     inkscape:pageopacity="0.0"
     inkscape:pagecheckerboard="0"
     showgrid="false"
     height="46.878px"
     inkscape:zoom="8.4608"
     inkscape:cx="31.320915"
     inkscape:cy="20.506335"
     inkscape:window-width="1280"
     inkscape:window-height="953"
     inkscape:window-x="0"
     inkscape:window-y="37"
     inkscape:window-maximized="1"
     inkscape:current-layer="svg22" />
  <defs
     id="defs3">
    <path
       id="a"
       d="M 0,0 H 122.522 V 122.523 H 0 Z" />
  </defs>
  <clipPath
     id="b">
    <use
       xlink:href="#a"
       overflow="visible"
       id="use5"
       x="0"
       y="0"
       width="100%"
       height="100%" />
  </clipPath>
  <g
     id="g33"
     transform="scale(0.0187512)">
    <g
       clip-path="url(#b)"
       id="g20">
      <path
         d="m 313.19,48.227 h -21.257 v 2.255 c 6.649,0 7.718,1.425 7.718,9.856 V 75.54 c 0,8.431 -1.067,9.976 -7.718,9.976 -5.104,-0.713 -8.55,-3.444 -13.3,-8.67 l -5.462,-5.937 c 7.361,-1.308 11.28,-5.938 11.28,-11.164 0,-6.53 -5.58,-11.518 -16.031,-11.518 h -20.9 v 2.255 c 6.649,0 7.718,1.425 7.718,9.856 V 75.54 c 0,8.431 -1.068,9.976 -7.718,9.976 v 2.256 h 23.631 v -2.256 c -6.648,0 -7.718,-1.545 -7.718,-9.976 v -4.273 h 2.019 l 13.182,16.505 h 34.557 c 16.981,0 24.345,-9.024 24.345,-19.832 C 337.534,57.133 330.172,48.227 313.19,48.227 Z M 263.434,67.582 V 51.79 h 4.868 c 5.343,0 7.719,3.681 7.719,7.956 0,4.157 -2.376,7.837 -7.719,7.837 z m 50.113,16.508 h -0.832 c -4.274,0 -4.868,-1.067 -4.868,-6.53 V 51.79 h 5.7 c 12.35,0 14.604,9.024 14.604,16.031 10e-4,7.243 -2.255,16.269 -14.604,16.269 z M 181.378,71.978 189.571,47.75 c 2.376,-7.006 1.308,-9.023 -6.293,-9.023 v -2.376 h 22.325 v 2.376 c -7.48,0 -9.262,1.78 -12.23,10.449 L 179.834,89.79 h -1.543 L 166.177,52.62 153.828,89.79 h -1.545 L 139.102,49.177 c -2.85,-8.669 -4.75,-10.449 -11.638,-10.449 v -2.376 h 26.363 v 2.376 c -7.008,0 -8.908,1.662 -6.413,9.023 l 7.956,24.228 11.993,-35.627 h 2.258 z m 40.374,17.336 c -13.062,0 -23.75,-9.618 -23.75,-21.376 0,-11.638 10.688,-21.257 23.75,-21.257 13.062,0 23.75,9.619 23.75,21.257 0,11.758 -10.687,21.376 -23.75,21.376 z m 0,-38.949 c -10.924,0 -14.726,9.854 -14.726,17.574 0,7.839 3.802,17.576 14.726,17.576 11.045,0 14.845,-9.737 14.845,-17.576 0,-7.72 -3.8,-17.574 -14.845,-17.574 z"
         fill="#00749a"
         id="path8" />
      <path
         d="m 366.864,85.396 v 2.375 H 339.67 v -2.375 c 7.957,0 9.382,-2.019 9.382,-13.896 V 52.502 c 0,-11.877 -1.425,-13.775 -9.382,-13.775 V 36.35 h 24.581 c 12.23,0 19.002,6.294 19.002,14.727 0,8.194 -6.771,14.606 -19.002,14.606 h -6.77 V 71.5 c 0.001,11.878 1.425,13.896 9.383,13.896 z m -2.613,-44.771 h -6.77 v 20.664 h 6.77 c 6.65,0 9.737,-4.631 9.737,-10.212 10e-4,-5.7 -3.086,-10.452 -9.737,-10.452 z m 100.582,35.984 -0.595,2.137 c -1.067,3.919 -2.376,5.344 -10.807,5.344 h -1.663 c -6.174,0 -7.243,-1.425 -7.243,-9.855 v -5.462 c 9.263,0 9.976,0.83 9.976,7.006 h 2.257 V 58.083 h -2.257 c 0,6.175 -0.713,7.006 -9.976,7.006 V 51.79 h 6.53 c 8.433,0 9.738,1.425 10.807,5.344 l 0.596,2.256 h 1.898 l -0.83,-11.162 h -34.914 v 2.255 c 6.649,0 7.719,1.425 7.719,9.856 V 75.54 c 0,7.713 -0.907,9.656 -6.15,9.934 -4.983,-0.762 -8.404,-3.479 -13.085,-8.628 l -5.463,-5.937 c 7.363,-1.308 11.282,-5.938 11.282,-11.164 0,-6.53 -5.581,-11.518 -16.031,-11.518 h -20.9 v 2.255 c 6.649,0 7.719,1.425 7.719,9.856 V 75.54 c 0,8.431 -1.068,9.976 -7.719,9.976 v 2.256 h 23.632 v -2.256 c -6.648,0 -7.719,-1.545 -7.719,-9.976 v -4.273 h 2.02 l 13.181,16.505 h 48.806 l 0.713,-11.161 z M 401.896,67.582 V 51.79 h 4.868 c 5.344,0 7.72,3.681 7.72,7.956 0,4.157 -2.376,7.837 -7.72,7.837 z m 87.043,21.732 c -4.75,0 -8.907,-2.493 -10.688,-4.038 -0.595,0.595 -1.662,2.376 -1.899,4.038 h -2.257 V 72.927 h 2.375 c 0.951,7.838 6.412,12.469 13.419,12.469 3.8,0 6.888,-2.138 6.888,-5.699 0,-3.087 -2.73,-5.463 -7.6,-7.719 l -6.77,-3.206 c -4.751,-2.258 -8.312,-6.178 -8.312,-11.401 0,-5.7 5.344,-10.568 12.707,-10.568 3.919,0 7.243,1.426 9.263,3.088 0.593,-0.476 1.188,-1.782 1.544,-3.208 h 2.256 v 14.014 h -2.494 c -0.832,-5.582 -3.919,-10.213 -10.212,-10.213 -3.325,0 -6.413,1.899 -6.413,4.87 0,3.087 2.493,4.749 8.194,7.361 l 6.53,3.206 c 5.701,2.731 7.956,7.127 7.956,10.689 0,7.48 -6.531,12.704 -14.487,12.704 z m 36.575,0 c -4.751,0 -8.908,-2.493 -10.688,-4.038 -0.594,0.595 -1.662,2.376 -1.898,4.038 h -2.257 V 72.927 h 2.375 c 0.95,7.838 6.411,12.469 13.419,12.469 3.8,0 6.888,-2.138 6.888,-5.699 0,-3.087 -2.731,-5.463 -7.601,-7.719 l -6.77,-3.206 c -4.75,-2.258 -8.312,-6.178 -8.312,-11.401 0,-5.7 5.344,-10.568 12.707,-10.568 3.919,0 7.242,1.426 9.263,3.088 0.593,-0.476 1.187,-1.782 1.542,-3.208 h 2.257 v 14.014 h -2.493 c -0.832,-5.582 -3.919,-10.213 -10.212,-10.213 -3.325,0 -6.414,1.899 -6.414,4.87 0,3.087 2.494,4.749 8.195,7.361 l 6.53,3.206 c 5.7,2.731 7.955,7.127 7.955,10.689 0,7.48 -6.531,12.704 -14.486,12.704 z"
         fill="#464342"
         id="path10" />
      <g
         fill="#00749a"
         id="g18">
        <path
           d="m 8.708,61.26 c 0,20.803 12.089,38.779 29.619,47.299 L 13.258,39.872 A 52.354,52.354 0 0 0 8.708,61.26 Z M 96.74,58.608 c 0,-6.495 -2.333,-10.993 -4.334,-14.494 -2.664,-4.329 -5.16,-7.995 -5.16,-12.324 0,-4.831 3.663,-9.328 8.824,-9.328 0.233,0 0.454,0.029 0.682,0.042 C 87.401,13.938 74.944,8.708 61.262,8.708 c -18.36,0 -34.513,9.42 -43.91,23.688 1.233,0.037 2.396,0.062 3.382,0.062 5.497,0 14.006,-0.667 14.006,-0.667 2.833,-0.167 3.167,3.994 0.338,4.329 0,0 -2.848,0.335 -6.016,0.501 L 48.2,93.546 59.702,59.053 51.513,36.62 c -2.83,-0.166 -5.511,-0.501 -5.511,-0.501 -2.832,-0.166 -2.5,-4.496 0.332,-4.329 0,0 8.679,0.667 13.843,0.667 5.496,0 14.006,-0.667 14.006,-0.667 2.835,-0.167 3.168,3.994 0.337,4.329 0,0 -2.853,0.335 -6.015,0.501 l 18.992,56.494 5.241,-17.517 c 2.273,-7.269 4.002,-12.49 4.002,-16.989 z"
           id="path12" />
        <path
           d="m 62.184,65.857 -15.768,45.818 a 52.516,52.516 0 0 0 14.846,2.142 c 6.12,0 11.989,-1.059 17.452,-2.979 a 4.451,4.451 0 0 1 -0.374,-0.724 z m 45.192,-29.811 c 0.226,1.674 0.354,3.472 0.354,5.404 0,5.333 -0.996,11.328 -3.996,18.824 l -16.053,46.413 c 15.624,-9.111 26.133,-26.038 26.133,-45.427 a 52.268,52.268 0 0 0 -6.438,-25.214 z"
           id="path14" />
        <path
           d="M 61.262,0 C 27.483,0 0,27.481 0,61.26 c 0,33.783 27.482,61.264 61.262,61.264 33.778,0 61.265,-27.48 61.265,-61.264 C 122.526,27.481 95.04,0 61.262,0 Z m 0,119.715 c -32.23,0 -58.453,-26.223 -58.453,-58.455 0,-32.229 26.222,-58.45 58.453,-58.45 32.229,0 58.45,26.221 58.45,58.45 0,32.232 -26.222,58.455 -58.45,58.455 z"
           id="path16" />
      </g>
    </g>
  </g>
</svg>
